<svg width="512" height="512" viewBox="0 0 512 512" fill="none" xmlns="http://www.w3.org/2000/svg">
<rect x="8" y="136" width="504" height="239" rx="40" fill="black"/>
<mask id="mask0_99_56" style="mask-type:luminance" maskUnits="userSpaceOnUse" x="41" y="172" width="438" height="166">
<path d="M41 172H479V337.251H41V172Z" fill="white"/>
</mask>
<g mask="url(#mask0_99_56)">
<path d="M398.93 172C413.789 172 427.118 179.693 434.548 192.566L473.458 259.962L473.423 259.946C480.538 272.277 480.833 287.14 474.189 299.681C467.023 313.216 452.667 321.621 436.743 321.621H349.66C348.423 321.621 347.271 320.959 346.641 319.88C346.333 319.35 346.17 318.748 346.17 318.135C346.17 317.521 346.333 316.919 346.641 316.389L357.369 297.828C357.98 296.749 359.149 296.086 360.386 296.086H437.824C440.562 296.104 443.254 295.39 445.624 294.019C447.994 292.649 449.956 290.671 451.306 288.289C452.694 285.928 453.426 283.239 453.426 280.501C453.426 277.762 452.694 275.073 451.306 272.712L412.396 205.318C411.045 202.936 409.084 200.958 406.714 199.588C404.344 198.217 401.651 197.504 398.914 197.521C396.176 197.504 393.483 198.217 391.113 199.588C388.743 200.958 386.782 202.936 385.431 205.318L346.521 272.715C346.196 273.285 345.904 273.874 345.647 274.478C345.595 274.615 345.527 274.741 345.458 274.861L319.471 319.883L317.218 323.474L310.295 335.493C309.99 336.023 309.55 336.464 309.019 336.769C308.489 337.075 307.888 337.235 307.276 337.234H285.841C284.604 337.234 283.451 336.574 282.824 335.493C282.195 334.412 282.195 333.084 282.824 332.002L288.814 321.627H223.875C214.787 321.627 206.207 318.555 199.736 312.953C196.104 309.835 192.971 306.179 190.445 302.112C190.354 301.994 190.27 301.869 190.196 301.74L134.624 205.37C133.274 202.987 131.313 201.008 128.943 199.637C126.573 198.265 123.88 197.551 121.142 197.567C118.404 197.551 115.712 198.266 113.342 199.637C110.973 201.009 109.012 202.988 107.663 205.37L68.7519 272.764C67.3643 275.125 66.6327 277.814 66.6327 280.553C66.6327 283.291 67.3643 285.98 68.7519 288.342C70.1072 290.717 72.0702 292.69 74.4395 294.056C76.8089 295.422 79.4991 296.134 82.234 296.117H163.981C164.593 296.119 165.193 296.281 165.722 296.588C166.251 296.895 166.691 297.336 166.996 297.865C167.302 298.395 167.463 298.996 167.463 299.608C167.463 300.22 167.303 300.821 166.998 301.351L156.289 319.907C155.984 320.438 155.545 320.879 155.015 321.186C154.486 321.493 153.884 321.654 153.272 321.654H80.6819C71.5934 321.654 63.0141 318.566 56.5453 312.967C40.3777 298.997 36.3973 277.697 46.6356 259.96L85.5327 192.546C92.6639 180.213 105.38 172.542 119.56 172.019C120.061 172 120.532 172 121.019 172C135.741 172 149.626 180.232 157.28 193.491L192.829 254.742L228.74 192.549C235.873 180.213 248.586 172.542 262.767 172.016C263.276 172 263.749 172 264.237 172C276.427 172 288.08 177.585 296.189 187.298C297.111 188.415 297.251 189.984 296.536 191.257L286.23 209.326C285.928 209.86 285.491 210.305 284.962 210.615C284.433 210.926 283.831 211.09 283.217 211.092C282.604 211.094 282.001 210.933 281.47 210.627C280.939 210.32 280.498 209.877 280.194 209.345L277.875 205.334C276.524 202.952 274.562 200.974 272.192 199.603C269.821 198.231 267.128 197.518 264.39 197.535C261.653 197.518 258.96 198.233 256.591 199.604C254.222 200.975 252.261 202.953 250.911 205.334L211.997 272.731C210.609 275.092 209.877 277.781 209.877 280.52C209.877 283.259 210.609 285.948 211.997 288.309C213.352 290.685 215.314 292.658 217.684 294.025C220.053 295.392 222.744 296.104 225.479 296.086H303.555L363.37 192.494C370.799 179.677 384.106 172 398.93 172Z" fill="white"/>
</g>
</svg>
