<svg width="512" height="512" viewBox="0 0 512 512" fill="none" xmlns="http://www.w3.org/2000/svg">
<circle cx="256" cy="256" r="254" fill="black"/>
<path d="M470 256C470 374.189 374.189 470 256 470C137.811 470 42 374.189 42 256C42 137.811 137.811 42 256 42C374.189 42 470 137.811 470 256ZM92.9486 256C92.9486 346.051 165.949 419.051 256 419.051C346.051 419.051 419.051 346.051 419.051 256C419.051 165.949 346.051 92.9486 256 92.9486C165.949 92.9486 92.9486 165.949 92.9486 256Z" fill="#0075F3"/>
<path d="M360 256L204 346.067L204 165.933L360 256Z" fill="#0075F3"/>
</svg>
