<svg width="512" height="512" viewBox="0 0 512 512" fill="none" xmlns="http://www.w3.org/2000/svg">
<circle cx="256" cy="256" r="254" fill="black"/>
<path d="M336.859 219.219C329.998 195.43 316.703 175.421 299.294 162.683C281.886 149.946 261.468 145.289 241.605 149.524C221.741 153.759 203.692 166.618 190.607 185.857C177.521 205.096 170.23 229.494 170.005 254.795C169.781 280.095 176.636 304.692 189.377 324.293C202.117 343.894 219.933 357.255 239.716 362.046C259.5 366.837 279.994 362.753 297.625 350.507C315.256 338.26 328.903 318.629 336.185 295.038L307.818 281.227C303.112 296.473 294.293 309.159 282.899 317.073C271.506 324.987 258.262 327.626 245.477 324.53C232.692 321.434 221.179 312.8 212.946 300.133C204.713 287.466 200.282 271.571 200.428 255.221C200.573 238.871 205.285 223.105 213.741 210.672C222.197 198.239 233.861 189.929 246.697 187.192C259.534 184.455 272.728 187.465 283.978 195.696C295.228 203.928 303.819 216.858 308.253 232.231L336.859 219.219Z" fill="#0075F3"/>
<path d="M451 256C451 363.696 363.696 451 256 451C148.304 451 61 363.696 61 256C61 148.304 148.304 61 256 61C363.696 61 451 148.304 451 256ZM104.568 256C104.568 339.634 172.366 407.432 256 407.432C339.634 407.432 407.432 339.634 407.432 256C407.432 172.366 339.634 104.568 256 104.568C172.366 104.568 104.568 172.366 104.568 256Z" fill="#0075F3"/>
</svg>
