<svg width="512" height="512" viewBox="0 0 512 512" fill="none" xmlns="http://www.w3.org/2000/svg">
<path d="M255.993 34L141.951 231.343C185.224 218.014 231.776 216.037 276.902 226.672L315.444 235.762L279.182 389.386L240.585 380.296C210.936 373.308 180.029 380.232 156.127 399.112C144.17 408.56 134.751 420.423 128.295 433.731L92.6186 416.485C101.644 397.86 114.84 381.248 131.508 368.065C164.849 341.698 208.321 332.013 249.714 341.771L267.789 265.207C203.04 249.956 134.801 265.143 82.6324 306.395C30.4699 347.644 0 410.526 0 476.991L512 477L255.993 34Z" fill="#60A5FA"/>
</svg>
