<svg width="512" height="512" viewBox="0 0 512 512" fill="none" xmlns="http://www.w3.org/2000/svg">
<path d="M255.557 509.019C395.566 509.019 509.066 395.519 509.066 255.51C509.066 115.5 395.566 2 255.557 2C115.547 2 2.04688 115.5 2.04688 255.51C2.04688 395.519 115.547 509.019 255.557 509.019Z" fill="#FFD539"/>
<path d="M412.614 252.26C374.771 283.792 299.691 294.301 264.308 296.907C256.929 241.949 252.936 172.8 330.902 140.09C340.938 196.531 390.564 222.256 414.174 227.22L412.614 252.26Z" fill="white"/>
<path fill-rule="evenodd" clip-rule="evenodd" d="M276.546 229.618C276.546 253.286 282.052 272.622 291.147 288.016C327.67 283.324 365.235 274.036 399.376 253.719C410.267 247.427 407.062 232.961 396.621 228.048C371.093 217.384 336.781 192.322 326.189 147.677C297.542 163.957 276.546 192.099 276.546 229.618ZM425.923 138.331C398.346 128.026 365.459 129.886 337.573 141.995C346.331 184.083 378.837 207.517 402.158 217.002C408.603 211.391 418.629 207.278 427.521 212.354C446.709 228.047 428.913 250.069 416.587 257.027C378.406 278.575 340.433 292.273 298.819 299.092C330.712 338.627 389.544 344.672 425.923 327.128C419.959 350.732 398.768 370.696 364.435 377.303C363.791 387.636 375.5 410.794 386.047 419.98C362.347 428.857 335.01 416.797 319.924 407.328C314.153 415.496 311.628 440.419 311.628 456.01C293.822 456.01 270.403 430.158 264.669 420.283C256.315 425.165 241.968 450.477 239.373 465.178C216.89 453.071 209.251 425.316 210.024 412.939C200.028 419.978 171.056 437.506 157.662 443.559C151.166 428.425 153.919 409.442 157.662 389.995C152.033 392.969 110.525 396.81 93.938 392.969C102.308 383.457 113.674 362.077 118.695 352.143C101.06 351.043 69.8347 339.833 54.8163 324.544C67.5967 318.854 80.0959 310.654 93.938 296.808L93.0943 296.358C75.513 286.987 49.3916 273.061 43.1172 249.031C59.5973 247.857 79.7038 245.563 90.2086 240.816C76.8201 233.068 54.8163 208.595 59.2725 179.191C70.211 184.466 93.4527 188.777 104.726 186.618C94.9362 165.015 88.3964 144.148 98.0318 115.353C108.432 127.194 128.542 138.335 137.068 141.403C134.846 120.141 144.727 81.0594 157.874 70.5387C163.307 82.6735 177.176 102.307 186.414 107.088C188.705 91.1404 209.328 53.6665 227.462 48.6359C227.462 61.6005 234.707 84.963 240.524 92.093C254.091 77.9915 299.95 54.5815 336.155 62.6265C323.966 71.4399 316.997 79.8314 313.771 87.9438C341.237 87.9438 386.504 96.8364 425.923 138.331ZM324.479 200.155C315.634 201.795 311.277 189.659 315.581 183.281C302.434 185.753 294.296 200.276 299.639 212.785C304.278 223.645 316.906 228.659 327.846 223.985C338.787 219.313 343.897 206.721 339.258 195.862C337.466 191.653 334.359 188.137 330.403 185.84C332.643 191.108 330.849 198.971 324.479 200.155Z" fill="#1E1E1E"/>
</svg>
