<svg width="512" height="512" viewBox="0 0 512 512" fill="none" xmlns="http://www.w3.org/2000/svg">
<g clip-path="url(#clip0_119_26)">
<path d="M255.995 255.992L366.846 319.99L255.995 511.985C397.376 511.985 511.987 397.374 511.987 255.992C511.987 209.35 499.452 165.66 477.656 127.994H255.992L255.995 255.992Z" fill="#AFCCF9"/>
<path d="M255.991 4.25646e-06C161.241 4.25646e-06 78.5772 51.5137 34.3125 128.028L145.141 319.993L255.991 255.996V127.998H477.655C433.383 51.5024 350.731 4.25646e-06 255.991 4.25646e-06Z" fill="#1767D1"/>
<path d="M0.00151177 255.992C0.00151177 397.374 114.609 511.985 255.994 511.985L366.845 319.99L255.994 255.992L145.143 319.99L34.315 128.025C12.5315 165.68 0 209.354 0 255.989" fill="#679EF5"/>
<path d="M383.988 255.992C383.988 326.683 326.681 383.991 255.99 383.991C185.3 383.991 127.992 326.683 127.992 255.992C127.992 185.302 185.3 127.994 255.99 127.994C326.681 127.994 383.988 185.302 383.988 255.992Z" fill="white"/>
<path d="M359.99 255.992C359.99 313.429 313.427 359.991 255.991 359.991C198.555 359.991 151.992 313.429 151.992 255.992C151.992 198.556 198.555 151.994 255.991 151.994C313.427 151.994 359.99 198.556 359.99 255.992Z" fill="#1A74E7"/>
</g>
<defs>
<clipPath id="clip0_119_26">
<rect width="512" height="512" fill="white"/>
</clipPath>
</defs>
</svg>
