<svg width="512" height="512" viewBox="0 0 512 512" fill="none" xmlns="http://www.w3.org/2000/svg">
<path d="M464.172 252.575L404.699 238.769L394.079 234.521L121.141 236.645V368.337L464.172 369.399V252.575Z" fill="white"/>
<path d="M352.632 356.654C354.341 352.131 354.944 347.265 354.389 342.461C353.835 337.658 352.14 333.057 349.446 329.042C346.679 325.724 343.285 322.984 339.458 320.98C335.631 318.975 331.447 317.745 327.144 317.359L142.353 315.235C141.291 315.235 140.229 314.173 139.167 314.173C138.92 313.988 138.719 313.747 138.581 313.471C138.443 313.194 138.371 312.889 138.371 312.58C138.371 312.271 138.443 311.966 138.581 311.69C138.719 311.413 138.92 311.173 139.167 310.987C140.229 308.863 141.291 307.801 143.415 307.801L329.268 305.677C341.067 304.367 352.304 299.938 361.824 292.845C371.343 285.752 378.801 276.251 383.431 265.32L394.051 237.707C394.051 236.645 395.113 235.583 394.051 234.521C388.277 208.803 374.266 185.673 354.146 168.645C334.027 151.618 308.899 141.623 282.58 140.181C256.262 138.739 230.192 145.928 208.333 160.655C186.473 175.383 170.019 196.843 161.469 221.777C150.371 213.85 136.833 210.089 123.237 211.156C110.759 212.548 99.1253 218.142 90.2474 227.02C81.3695 235.898 75.7754 247.532 74.3841 260.01C73.6769 266.397 74.0358 272.857 75.4461 279.126C55.2565 279.684 36.0813 288.098 21.9994 302.576C7.91745 317.055 0.040087 336.457 0.0429037 356.654C-0.13138 360.579 0.225848 364.508 1.1049 368.337C1.15367 369.166 1.50502 369.948 2.09228 370.535C2.67954 371.123 3.46191 371.474 4.29099 371.523H345.198C347.322 371.523 349.446 370.461 349.446 368.337L352.632 356.654Z" fill="#F48120"/>
<path d="M411.105 237.707H405.795C404.733 237.707 403.671 238.769 402.609 239.831L395.175 265.32C393.466 269.843 392.864 274.709 393.418 279.513C393.972 284.316 395.667 288.917 398.361 292.933C401.128 296.25 404.522 298.99 408.349 300.994C412.176 302.999 416.361 304.229 420.663 304.615L459.958 306.739C461.02 306.739 462.082 307.801 463.144 307.801C463.391 307.986 463.592 308.227 463.73 308.503C463.869 308.78 463.941 309.085 463.941 309.394C463.941 309.703 463.869 310.008 463.73 310.285C463.592 310.561 463.391 310.802 463.144 310.987C462.082 313.111 461.02 314.173 458.896 314.173L418.539 316.297C406.74 317.607 395.503 322.036 385.984 329.129C376.464 336.222 369.006 345.723 364.377 356.654L362.253 366.213C361.191 367.275 362.253 369.399 364.377 369.399H504.563C504.996 369.461 505.437 369.421 505.852 369.282C506.266 369.144 506.643 368.911 506.952 368.602C507.261 368.293 507.494 367.916 507.633 367.501C507.771 367.087 507.811 366.645 507.749 366.213C510.277 357.214 511.704 347.942 511.997 338.6C511.829 311.893 501.145 286.329 482.26 267.444C463.376 248.559 437.811 237.875 411.105 237.707Z" fill="#FAAD3F"/>
</svg>
