<svg width="512" height="512" viewBox="0 0 512 512" fill="none" xmlns="http://www.w3.org/2000/svg">
<g clip-path="url(#clip0_107_28)">
<path d="M256 510C396.28 510 510 396.28 510 256C510 115.72 396.28 2 256 2C115.72 2 2 115.72 2 256C2 396.28 115.72 510 256 510Z" fill="#FF0077"/>
<path d="M256.446 61.69C144.211 61.69 52.7969 152.199 52.7969 262.629V263.535L87.1885 283.449H88.0944C109.82 268.971 136.067 263.535 162.313 268.057C180.415 271.68 197.619 279.825 211.191 292.5L217.533 297.927L221.148 290.688C224.772 283.449 228.387 277.107 232.011 270.774C233.823 268.065 235.635 266.245 237.438 263.535L241.062 259.006L236.54 255.39C217.533 239.998 194.901 229.144 170.467 224.614C146.929 220.084 123.392 220.99 101.675 228.229C117.965 156.728 181.321 106.038 256.446 106.038C298.991 106.038 338.818 122.337 368.688 152.199C390.143 172.724 404.959 199.206 411.225 228.229C397.653 223.708 383.166 221.896 368.688 221.896H365.97C360.535 221.896 355.108 222.802 348.775 222.802H347.869C346.057 222.802 343.339 223.708 341.527 223.708C337.912 224.614 335.194 224.614 331.579 225.52L328.861 226.426L320.716 229.135H319.81C313.469 230.947 308.041 233.665 301.708 236.383C298.991 237.28 296.273 239.092 293.563 240.904H292.658C279.077 249.049 266.411 259.006 256.446 271.68L255.548 273.492C252.83 277.107 251.018 279.825 249.207 281.637C247.395 283.449 246.497 286.158 244.685 288.876L243.779 290.688C241.968 293.397 241.07 296.115 240.156 297.927V298.833C237.446 304.26 234.729 310.602 232.917 316.935V317.841C228.17 332.77 225.729 348.335 225.678 364.001V381.197C225.678 383.008 226.584 385.726 226.584 387.538C231.105 409.255 241.062 430.075 256.446 449.082L257.352 449.988L258.257 449.082C264.599 441.843 279.085 419.212 280.889 405.64C273.806 392.248 270.078 377.338 270.026 362.189C270.026 311.507 309.853 268.971 361.441 266.245H365.064C385.884 265.339 406.704 271.68 423.899 283.449H424.805L459.197 263.535V262.629C459.197 209.222 438.377 158.54 399.456 120.525C361.441 82.5095 310.759 61.69 256.454 61.69" fill="white"/>
</g>
<defs>
<clipPath id="clip0_107_28">
<rect width="508" height="508" fill="white" transform="translate(2 2)"/>
</clipPath>
</defs>
</svg>
