<svg width="512" height="512" viewBox="0 0 512 512" fill="none" xmlns="http://www.w3.org/2000/svg">
<circle cx="256" cy="256" r="254" fill="black"/>
<path d="M348.03 209.875C339.509 209.875 332.266 206.885 326.301 200.906C320.336 194.927 317.353 187.667 317.353 179.125C317.353 170.583 320.336 163.323 326.301 157.344C332.266 151.365 339.509 148.375 348.03 148.375C356.551 148.375 363.794 151.365 369.759 157.344C375.724 163.323 378.707 170.583 378.707 179.125C378.707 187.667 375.724 194.927 369.759 200.906C363.794 206.885 356.551 209.875 348.03 209.875ZM163.97 209.875C155.449 209.875 148.206 206.885 142.241 200.906C136.276 194.927 133.293 187.667 133.293 179.125C133.293 170.583 136.276 163.323 142.241 157.344C148.206 151.365 155.449 148.375 163.97 148.375C172.491 148.375 179.734 151.365 185.699 157.344C191.664 163.323 194.647 170.583 194.647 179.125C194.647 187.667 191.664 194.927 185.699 200.906C179.734 206.885 172.491 209.875 163.97 209.875ZM256 266.25C247.479 266.25 240.236 263.26 234.271 257.281C228.306 251.302 225.323 244.042 225.323 235.5C225.323 226.958 228.306 219.698 234.271 213.719C240.236 207.74 247.479 204.75 256 204.75C264.521 204.75 271.764 207.74 277.729 213.719C283.694 219.698 286.677 226.958 286.677 235.5C286.677 244.042 283.694 251.302 277.729 257.281C271.764 263.26 264.521 266.25 256 266.25ZM256 153.5C247.479 153.5 240.236 150.51 234.271 144.531C228.306 138.552 225.323 131.292 225.323 122.75C225.323 114.208 228.306 106.948 234.271 100.969C240.236 94.9896 247.479 92 256 92C264.521 92 271.764 94.9896 277.729 100.969C283.694 106.948 286.677 114.208 286.677 122.75C286.677 131.292 283.694 138.552 277.729 144.531C271.764 150.51 264.521 153.5 256 153.5ZM256 420C249.183 420 242.281 419.487 235.293 418.462C228.306 417.437 221.574 416.071 215.098 414.362V341.075C215.098 329.117 219.103 318.781 227.113 310.069C235.123 301.356 244.752 297 256 297C267.248 297 276.877 301.356 284.887 310.069C292.897 318.781 296.902 329.117 296.902 341.075V414.362C290.426 416.071 283.694 417.437 276.707 418.462C269.719 419.487 262.817 420 256 420ZM184.421 403.6C177.604 400.867 171.043 397.792 164.737 394.375C158.431 390.958 152.381 387.2 146.586 383.1C137.043 376.267 129.459 367.383 123.835 356.45C118.211 345.517 115.398 333.9 115.398 321.6C115.398 312.717 114.461 304.431 112.586 296.744C110.712 289.056 107.388 281.796 102.617 274.962C99.208 270.521 92.817 263.773 83.4436 254.719C74.0702 245.665 65.4637 237.208 57.6241 229.35C53.8747 225.592 52 220.808 52 215C52 209.192 53.8747 204.408 57.6241 200.65C61.3734 196.892 66.1454 195.012 71.9399 195.012C77.7343 195.012 82.5063 196.892 86.2556 200.65L164.481 274.962C171.298 281.112 176.326 288.373 179.564 296.744C182.802 305.115 184.421 313.742 184.421 322.625V403.6ZM327.579 403.6V322.625C327.579 313.742 329.283 305.029 332.692 296.487C336.1 287.946 341.043 280.771 347.519 274.962L425.744 200.65C429.835 196.892 434.692 195.012 440.316 195.012C445.94 195.012 450.627 196.892 454.376 200.65C458.125 204.408 460 209.192 460 215C460 220.808 458.125 225.592 454.376 229.35C446.536 237.208 437.93 245.579 428.556 254.462C419.183 263.346 412.792 270.179 409.383 274.962C404.612 281.796 401.288 289.056 399.414 296.744C397.539 304.431 396.602 312.717 396.602 321.6C396.602 333.9 393.789 345.602 388.165 356.706C382.541 367.81 374.787 376.779 364.902 383.612C359.449 387.371 353.569 390.958 347.263 394.375C340.957 397.792 334.396 400.867 327.579 403.6Z" fill="#0075F3"/>
</svg>
