<svg width="512" height="512" viewBox="0 0 512 512" fill="none" xmlns="http://www.w3.org/2000/svg">
<g clip-path="url(#clip0_192_2)">
<path fill-rule="evenodd" clip-rule="evenodd" d="M53.8735 349.392C40.7077 320.98 33.3594 289.333 33.3594 255.982C33.3594 247.351 33.8506 238.833 34.8092 230.457C35.7814 221.993 37.2221 213.687 39.1026 205.564C49.6704 159.991 74.2506 119.762 108.048 89.6705C136.437 64.4288 171.215 46.4201 209.338 38.2571C224.384 35.0434 239.99 33.3525 255.988 33.3525C261.595 33.3582 267.243 33.5741 272.926 34.0071C299.87 36.0647 325.331 42.8476 348.561 53.4817C367.298 62.0707 384.642 73.1835 400.155 86.3859C439.12 119.579 466.296 165.818 475.332 217.705C477.492 230.142 478.617 242.932 478.617 255.982C478.613 261.598 478.395 267.255 477.961 272.945C476.32 294.451 471.667 315.012 464.448 334.248C454.373 361.04 439.277 385.381 420.31 406.126C395.641 431.315 364.291 442.523 338.108 442.057C319.069 441.718 300.44 434.142 287.567 423.058C269.177 407.222 261.749 389.121 259.204 368.922C258.571 363.901 258.942 350.218 261.555 340.745C263.503 333.683 268.443 320.046 275.667 314.081C267.216 310.441 256.34 302.516 252.911 298.711C252.069 297.776 252.178 296.312 252.932 295.305C253.687 294.297 255.011 293.899 256.196 294.325C263.461 296.819 272.309 299.279 281.638 300.84C293.908 302.891 309.168 305.475 324.627 306.235C362.318 308.085 401.689 291.167 413.909 257.506C426.127 223.845 421.387 190.552 377.551 170.58C333.714 150.609 313.465 126.864 278.046 112.542C254.913 103.186 229.164 108.739 202.728 123.349C131.523 162.699 67.7283 287.028 97.1365 402.218C97.557 403.793 96.8475 405.453 95.4171 406.238C94.0782 406.974 92.4296 406.764 91.3191 405.747C82.7609 396.343 74.9966 386.205 68.1315 375.438C62.8202 367.105 58.0527 358.405 53.8735 349.392Z" fill="black"/>
<path fill-rule="evenodd" clip-rule="evenodd" d="M267.37 11.3501C402.387 17.6308 506.905 132.347 500.625 267.365C494.344 402.383 379.628 506.899 244.61 500.618C109.592 494.338 5.07381 379.623 11.3545 244.605C17.6352 109.588 132.352 5.06937 267.37 11.3501ZM324.629 306.237C309.171 305.476 293.91 302.893 281.641 300.842C272.311 299.281 263.463 296.822 256.198 294.328C255.012 293.902 253.689 294.299 252.934 295.306C252.179 296.314 252.07 297.778 252.913 298.714C256.341 302.518 267.218 310.444 275.668 314.083C268.445 320.048 263.504 333.686 261.557 340.747C258.944 350.221 258.572 363.903 259.205 368.924C261.751 389.123 269.179 407.225 287.569 423.06C300.442 434.144 319.071 441.72 338.11 442.06C364.384 442.527 395.86 431.24 420.569 405.867C452.873 370.451 474.036 324.401 477.964 272.947C487.32 150.429 395.446 43.3638 272.927 34.0085C150.41 24.6533 43.3447 116.528 33.9893 239.046C29.1443 302.495 51.449 361.801 91.1036 405.533C92.2079 406.733 93.9889 407.026 95.4186 406.241C96.8483 405.456 97.5579 403.796 97.1374 402.22C67.7297 287.031 131.524 162.701 202.73 123.351C229.165 108.741 254.914 103.187 278.048 112.543C313.467 126.864 333.716 150.61 377.553 170.582C421.39 190.553 426.13 223.847 413.911 257.508C401.691 291.169 362.321 308.087 324.629 306.237ZM247.923 128.062C233.557 129.186 224.124 146.968 222.889 158.407C221.649 169.845 227.326 188.723 246.045 188.355C267.967 187.923 274.627 169.158 272.222 151.002C270.417 137.366 259.934 127.12 247.923 128.062Z" fill="white"/>
<path fill-rule="evenodd" clip-rule="evenodd" d="M248.023 127.993C260.034 127.052 270.512 137.303 272.318 150.935C274.728 169.096 268.064 187.855 246.147 188.287C227.424 188.66 221.752 169.78 222.992 158.342C224.224 146.904 233.653 129.121 248.023 127.993Z" fill="black"/>
</g>
<defs>
<clipPath id="clip0_192_2">
<rect width="512" height="512" fill="white"/>
</clipPath>
</defs>
</svg>
