<svg width="512" height="512" viewBox="0 0 512 512" fill="none" xmlns="http://www.w3.org/2000/svg">
<g clip-path="url(#clip0_201_2)">
<path d="M36.3083 137.142L233.756 6.69153C240.352 2.32735 248.088 2.28882e-05 256 2.28882e-05C263.912 2.28882e-05 271.648 2.32735 278.244 6.69153L475.692 137.142C481.334 140.892 485.959 145.979 489.153 151.949C492.348 157.919 494.013 164.586 493.999 171.355V340.499C494.037 347.292 492.384 353.989 489.188 359.987C485.993 365.984 481.355 371.094 475.692 374.858L278.244 505.309C271.648 509.673 263.912 512 256 512C248.088 512 240.352 509.673 233.756 505.309L36.3083 374.858C30.666 371.108 26.0412 366.021 22.8466 360.051C19.6521 354.081 17.9872 347.414 18.0006 340.645V171.501C17.9629 164.708 19.6162 158.011 22.8118 152.013C26.0075 146.016 30.6453 140.906 36.3083 137.142Z" fill="#0366D6"/>
<path d="M271.895 175.995V159.997H245.403C244.705 159.994 244.014 159.855 243.37 159.586C242.726 159.317 242.141 158.925 241.649 158.431C241.157 157.937 240.768 157.351 240.503 156.706C240.238 156.062 240.103 155.372 240.105 154.676V117.339C240.1 115.931 240.655 114.579 241.648 113.578C242.641 112.577 243.992 112.01 245.403 112H282.473C283.173 112.002 283.865 112.143 284.511 112.412C285.156 112.682 285.742 113.076 286.234 113.572C286.726 114.068 287.115 114.657 287.379 115.303C287.643 115.949 287.776 116.641 287.772 117.339V175.995H367.228C371.46 176.02 375.509 177.718 378.486 180.718C381.463 183.718 383.124 187.774 383.105 191.994V255.99H393.702C394.401 255.992 395.094 256.132 395.739 256.402C396.384 256.672 396.97 257.066 397.462 257.562C397.954 258.058 398.344 258.646 398.608 259.293C398.871 259.939 399.005 260.631 399 261.329V314.664C399.002 315.361 398.867 316.051 398.602 316.695C398.337 317.339 397.948 317.925 397.456 318.419C396.964 318.913 396.379 319.306 395.735 319.575C395.091 319.843 394.4 319.983 393.702 319.985H383.105V351.983C383.117 354.074 382.716 356.148 381.925 358.084C381.133 360.021 379.967 361.784 378.493 363.271C377.018 364.758 375.265 365.941 373.332 366.753C371.399 367.564 369.325 367.988 367.228 368H144.772C142.675 367.988 140.601 367.564 138.668 366.753C136.735 365.941 134.982 364.758 133.507 363.271C132.033 361.784 130.867 360.021 130.075 358.084C129.284 356.148 128.883 354.074 128.895 351.983V319.985H118.298C117.6 319.983 116.909 319.843 116.265 319.575C115.621 319.306 115.036 318.913 114.544 318.419C114.052 317.925 113.663 317.339 113.398 316.695C113.133 316.051 112.998 315.361 113 314.664V261.329C112.995 260.631 113.129 259.939 113.393 259.293C113.656 258.646 114.046 258.058 114.538 257.562C115.03 257.066 115.616 256.672 116.261 256.402C116.906 256.132 117.599 255.992 118.298 255.99H128.895V191.994C128.876 187.774 130.537 183.718 133.514 180.718C136.491 177.718 140.54 176.02 144.772 175.995H271.895Z" fill="white"/>
<path d="M298.886 302.077C299.477 302.686 300.186 303.169 300.969 303.5C301.752 303.83 302.593 304 303.444 304C304.294 304 305.136 303.83 305.919 303.5C306.702 303.169 307.41 302.686 308.002 302.077L341.13 268.785C342.328 267.575 343 265.945 343 264.246C343 262.548 342.328 260.917 341.13 259.708L334.33 252.883C333.742 252.287 333.041 251.813 332.268 251.49C331.495 251.167 330.665 251 329.826 251C328.987 251 328.157 251.167 327.384 251.49C326.611 251.813 325.91 252.287 325.323 252.883L303.444 274.83L294.783 266.116C294.192 265.508 293.483 265.024 292.7 264.694C291.917 264.364 291.076 264.193 290.225 264.193C289.375 264.193 288.533 264.364 287.75 264.694C286.967 265.024 286.259 265.508 285.667 266.116L278.885 272.942C277.678 274.146 277 275.778 277 277.48C277 279.181 277.678 280.814 278.885 282.018L298.886 302.077Z" fill="#0366D6"/>
<path d="M193.256 302.116C193.854 302.713 194.566 303.186 195.352 303.51C196.139 303.833 196.983 304 197.835 304C198.688 304 199.532 303.833 200.319 303.51C201.105 303.186 201.817 302.713 202.414 302.116L236.099 268.798C237.317 267.588 238 265.956 238 264.256C238 262.557 237.317 260.925 236.099 259.715L229.184 252.884C228.587 252.287 227.874 251.814 227.088 251.49C226.302 251.167 225.458 251 224.605 251C223.752 251 222.908 251.167 222.122 251.49C221.336 251.814 220.623 252.287 220.026 252.884L197.78 274.848L188.974 266.128C188.374 265.533 187.66 265.06 186.872 264.738C186.084 264.416 185.239 264.25 184.386 264.25C183.532 264.25 182.687 264.416 181.9 264.738C181.112 265.06 180.397 265.533 179.797 266.128L172.901 272.958C171.683 274.169 171 275.8 171 277.5C171 279.2 171.683 280.832 172.901 282.042L193.256 302.116Z" fill="#0366D6"/>
</g>
<defs>
<clipPath id="clip0_201_2">
<rect width="512" height="512" fill="white"/>
</clipPath>
</defs>
</svg>
