<svg width="512" height="512" viewBox="0 0 512 512" fill="none" xmlns="http://www.w3.org/2000/svg">
<g clip-path="url(#clip0_195_15)">
<path d="M501.741 220.76C489.287 212.376 456.561 208.795 432.768 215.204C431.485 191.503 419.267 171.53 396.912 154.104L388.636 148.548L383.121 156.878C372.279 173.337 367.712 195.265 369.331 215.197C370.607 227.478 374.879 241.284 383.121 251.3C352.154 269.264 323.613 265.186 197.207 265.186H2.04381C1.47285 293.731 6.06074 348.645 40.9771 393.347C44.8328 398.284 49.0647 403.061 53.6526 407.663C82.0397 436.093 124.929 456.94 189.066 457C286.91 457.087 370.741 404.196 421.732 276.305C438.512 276.58 482.805 279.314 504.482 237.421C505.013 236.715 509.997 226.309 509.997 226.309L501.735 220.753L501.741 220.76ZM129.41 194.654H74.5298V249.54H129.41V194.654ZM200.311 194.654H145.431V249.54H200.311V194.654ZM271.211 194.654H216.331V249.54H271.211V194.654ZM342.112 194.654H287.232V249.54H342.112V194.654ZM58.5092 194.654H3.62909V249.54H58.5092V194.654ZM129.41 125.33H74.5298V180.217H129.41V125.33ZM200.311 125.33H145.431V180.217H200.311V125.33ZM271.211 125.33H216.331V180.217H271.211V125.33ZM271.211 56H216.331V110.886H271.211V56Z" fill="#FF4BA8"/>
</g>
<defs>
<clipPath id="clip0_195_15">
<rect width="508" height="401" fill="white" transform="translate(2 56)"/>
</clipPath>
</defs>
</svg>
