<svg width="512" height="512" viewBox="0 0 512 512" fill="none" xmlns="http://www.w3.org/2000/svg">
<circle cx="256" cy="256" r="254" fill="black"/>
<path d="M104 357.636C104.545 364.332 106.913 371.066 113.095 380.1C120.441 390.826 133.057 396.714 142.266 387.264C148.473 380.883 215.657 263.751 248.033 219.354C248.921 218.085 250.103 217.048 251.48 216.332C252.856 215.617 254.385 215.243 255.937 215.243C257.489 215.243 259.018 215.617 260.394 216.332C261.77 217.048 262.952 218.085 263.841 219.354C296.217 263.751 363.401 380.883 369.607 387.264C378.816 396.714 391.432 390.826 398.779 380.1C405.999 369.55 408 362.159 408 354.25C408 348.868 303.373 154.654 292.835 138.482C282.701 122.942 279.611 119.556 262.473 119H249.401C232.263 119.556 229.172 122.929 219.026 138.482C208.715 154.313 108.18 340.883 104 353.669V357.636Z" fill="white"/>
</svg>
