<svg width="512" height="512" viewBox="0 0 512 512" fill="none" xmlns="http://www.w3.org/2000/svg">
<path d="M255.983 491.57L350.305 201.438H161.797L255.983 491.57Z" fill="#E24329"/>
<path d="M29.6803 201.438L0.956945 289.584C-1.64227 297.588 1.16469 306.422 8.02517 311.412L255.981 491.569L29.6803 201.438Z" fill="#FCA326"/>
<path d="M29.6797 201.438H161.794L104.936 26.7047C102.026 17.7651 89.3434 17.7651 86.3287 26.7047L29.6797 201.438Z" fill="#E24329"/>
<path d="M482.421 201.438L511.041 289.584C513.641 297.588 510.834 306.422 503.973 311.412L255.984 491.57L482.421 201.438Z" fill="#FCA326"/>
<path d="M482.419 201.438H350.305L407.058 26.7047C409.968 17.7651 422.651 17.7651 425.665 26.7047L482.419 201.438Z" fill="#E24329"/>
<path d="M255.984 491.57L350.307 201.438H482.421L255.984 491.57Z" fill="#FC6D26"/>
<path d="M255.98 491.57L29.6797 201.438H161.794L255.98 491.57Z" fill="#FC6D26"/>
</svg>
