<svg width="512" height="512" viewBox="0 0 512 512" fill="none" xmlns="http://www.w3.org/2000/svg">
<path d="M413.043 253.905C412.428 254.278 392.155 250.876 366.75 249.156C346.003 247.75 321.833 247.804 302.153 249.137C286.193 250.217 265.225 242.195 262.72 251.729C253.341 287.419 233.163 318.502 207.495 342.72C188.184 360.938 166.083 374.752 142.179 383.264C113.72 368.645 100.28 336.129 112.407 307.62C122.026 285.008 133.217 260.103 112.555 254.405C97.5138 250.257 89.2547 264.666 83.4728 280.071C72.3961 309.582 51.3482 340.119 45.35 376.29C39.0182 414.474 45.3295 455.007 78.3545 477.896C155.267 531.203 238.755 444.851 326.782 423.143C358.684 415.276 393.703 416.544 421.81 400.265C442.917 388.04 456.832 367.78 460.781 345.034C467.133 308.449 448.1 272.101 413.043 253.905Z" fill="#C21325" stroke="white" stroke-width="20"/>
<path d="M262.721 251.729C253.343 287.419 233.164 318.502 207.496 342.72C188.185 360.938 166.084 374.752 142.179 383.264C113.72 368.645 100.28 336.129 112.407 307.62C122.026 285.008 133.217 260.103 112.555 254.405C97.5138 250.257 89.2547 264.666 83.4727 280.071C72.3961 309.582 51.3482 340.119 45.35 376.29C39.0182 414.474 45.3295 455.007 78.3545 477.896C155.267 531.203 238.755 444.851 326.783 423.143C358.686 415.276 393.704 416.544 421.811 400.265C442.918 388.04 456.833 367.781 460.782 345.035C467.134 308.45 448.101 272.102 413.044 253.906" stroke="white" stroke-width="20"/>
<path d="M333.323 109.404L395.162 235.553L469.264 17H197.199L271.13 235.165L333.323 109.404Z" fill="#C21325"/>
<path d="M333.323 109.404L395.162 235.553L469.263 17H197.199L271.13 235.165L333.323 109.404Z" stroke="white" stroke-width="20"/>
<path d="M258.299 298.787C284.043 298.787 304.911 277.918 304.911 252.175C304.911 226.432 284.043 205.563 258.299 205.563C232.556 205.563 211.688 226.432 211.688 252.175C211.688 277.918 232.556 298.787 258.299 298.787Z" fill="#C21325"/>
<path d="M258.299 298.787C284.043 298.787 304.911 277.918 304.911 252.175C304.911 226.432 284.043 205.563 258.299 205.563C232.556 205.563 211.688 226.432 211.688 252.175C211.688 277.918 232.556 298.787 258.299 298.787Z" stroke="white" stroke-width="20"/>
<path d="M410.143 298.787C435.886 298.787 456.755 277.918 456.755 252.175C456.755 226.432 435.886 205.563 410.143 205.563C384.4 205.563 363.531 226.432 363.531 252.175C363.531 277.918 384.4 298.787 410.143 298.787Z" fill="#C21325" stroke="white" stroke-width="20"/>
<path d="M410.143 298.787C435.886 298.787 456.755 277.918 456.755 252.175C456.755 226.432 435.886 205.563 410.143 205.563C384.4 205.563 363.531 226.432 363.531 252.175C363.531 277.918 384.4 298.787 410.143 298.787Z" stroke="white" stroke-width="20"/>
<path d="M105.878 299.122C131.621 299.122 152.49 278.253 152.49 252.51C152.49 226.767 131.621 205.898 105.878 205.898C80.1345 205.898 59.2656 226.767 59.2656 252.51C59.2656 278.253 80.1345 299.122 105.878 299.122Z" fill="#C21325"/>
<path d="M105.878 299.122C131.621 299.122 152.49 278.253 152.49 252.51C152.49 226.767 131.621 205.898 105.878 205.898C80.1345 205.898 59.2656 226.767 59.2656 252.51C59.2656 278.253 80.1345 299.122 105.878 299.122Z" stroke="white" stroke-width="20"/>
</svg>
