<svg width="512" height="512" viewBox="0 0 512 512" fill="none" xmlns="http://www.w3.org/2000/svg">
<g clip-path="url(#clip0_83_305)">
<path opacity="0.8" fill-rule="evenodd" clip-rule="evenodd" d="M308.404 79.8033C333.018 44.1937 361.465 28.0239 393.017 30.192L259.952 261.837C256.758 270.786 250.868 278.528 243.09 283.999C235.866 288.735 231.948 288.172 224.777 290.734C218.34 292.866 213.006 297.448 209.934 303.485L207.464 311.347C205.245 318.363 201.747 325.381 206.979 332.226C210.43 336.727 216.977 338.401 225.633 338.104C233.147 339.629 240.256 342.708 246.504 347.142C252.914 351.892 258.376 357.798 262.606 364.556C274.954 388.477 275.778 414.857 258.467 445.231C239.409 481.029 212.895 493.439 182.427 492.988C162.683 490.339 149.146 481.28 140.784 466.946C127.934 444.923 128.14 421.157 136.491 397.846C142.682 382.144 150.376 367.076 159.466 352.85L182.952 294.086L185.247 296.253L308.404 79.8033ZM427.027 283.122C470.197 279.318 498.321 262.594 512 234.126L290.938 235.169L262.743 283.241L427.027 283.122ZM192.84 257.07C189.865 258.026 186.742 258.447 183.621 258.312L175.552 256.578C168.343 255.042 160.501 254.617 157.119 246.697C154.882 241.448 156.655 234.939 161.203 227.598C163.553 220.259 164.332 212.509 163.487 204.85C162.525 196.998 160.105 189.395 156.349 182.43C141.597 159.906 119.002 146.144 84.0142 146.22C43.6265 145.317 19.6432 162.064 5.00333 188.743C-2.56234 207.107 -1.27713 223.455 7.03184 237.697C19.7915 259.567 40.6889 271.267 65.1023 275.485C81.836 277.871 98.7627 278.626 115.643 277.736L176.561 286.102L177.782 283.951L177.643 283.291L178.157 283.322L192.84 257.07ZM134.807 224.368C142.279 209.519 135.793 195.576 123.999 185.545C114.551 177.486 101.845 173.175 86.2272 172.575C70.4985 172.064 54.9974 176.429 41.8549 185.07C17.2319 202.56 25.9207 228.485 48.9573 242.154C59.5802 248.328 71.8262 251.145 84.0839 250.236C93.5597 249.776 102.895 247.759 111.712 244.264C121.573 240.655 129.785 233.596 134.825 224.398L134.807 224.368ZM244.003 254.304C245.274 256.482 245.869 258.989 245.713 261.507C245.555 264.024 244.655 266.438 243.123 268.443C241.592 270.45 239.498 271.955 237.109 272.773C234.718 273.59 232.14 273.681 229.697 273.034C227.256 272.387 225.062 271.032 223.392 269.14C221.722 267.247 220.652 264.903 220.319 262.402C219.984 259.902 220.401 257.36 221.515 255.096C222.63 252.833 224.391 250.95 226.578 249.687C228.025 248.846 229.625 248.298 231.284 248.074C232.944 247.851 234.631 247.957 236.25 248.386C237.868 248.815 239.386 249.559 240.717 250.573C242.047 251.589 243.164 252.856 244.003 254.304ZM215.439 362.569C232.062 363.408 240.993 375.887 243.914 391.078C246.293 403.29 243.762 416.419 236.668 430.431C229.279 444.277 217.796 455.513 203.781 462.611C176.377 475.333 158.075 454.996 157.53 428.248C157.389 415.984 160.984 403.967 167.838 393.79C172.901 385.779 179.266 378.666 186.672 372.745C194.691 365.971 204.9 362.333 215.403 362.508L215.439 362.569Z" fill="#F56E0F" stroke="#F56E0F" stroke-miterlimit="10"/>
</g>
<defs>
<clipPath id="clip0_83_305">
<rect width="512" height="512" fill="white"/>
</clipPath>
</defs>
</svg>
