<svg width="512" height="512" viewBox="0 0 512 512" fill="none" xmlns="http://www.w3.org/2000/svg">
<circle cx="256" cy="256" r="254" fill="black"/>
<path d="M188.5 435.833V399.167H238V194.292C230.056 191.542 223.181 187.264 217.375 181.458C211.569 175.653 207.292 168.778 204.542 160.833H146.333L201.333 289.167C201.333 304.444 195.069 317.431 182.542 328.125C170.014 338.819 154.889 344.167 137.167 344.167C119.444 344.167 104.319 338.819 91.7917 328.125C79.2639 317.431 73 304.444 73 289.167L128 160.833H91.3333V124.167H204.542C208.208 113.472 214.778 104.688 224.25 97.8125C233.722 90.9375 244.417 87.5 256.333 87.5C268.25 87.5 278.944 90.9375 288.417 97.8125C297.889 104.688 304.458 113.472 308.125 124.167L420.875 77V111.5L384.667 126.667L439.667 255C439.667 270.278 433.403 283.264 420.875 293.958C408.347 304.653 393.222 310 375.5 310C357.778 310 342.653 304.653 330.125 293.958C317.597 283.264 311.333 270.278 311.333 255L362 137L308.125 160.833C305.375 168.778 301.097 175.653 295.292 181.458C289.486 187.264 282.611 191.542 274.667 194.292V399.167H324V435.833H188.5ZM341.125 255H409.875L375.5 175.25L341.125 255ZM102.792 289.167H171.542L137.167 209.417L102.792 289.167Z" fill="#0075F3"/>
</svg>
