<svg width="512" height="512" viewBox="0 0 512 512" fill="none" xmlns="http://www.w3.org/2000/svg">
<g clip-path="url(#clip0_87_19)">
<path d="M478.159 111.658L135.775 19.9162C125.27 17.1013 114.472 23.3356 111.657 33.8408L19.9158 376.224C17.1009 386.73 23.3351 397.528 33.8403 400.342L376.224 492.084C386.729 494.899 397.527 488.664 400.342 478.159L492.083 135.776C494.898 125.27 488.664 114.472 478.159 111.658Z" fill="url(#paint0_radial_87_19)"/>
<path d="M432.127 150.291L365.552 132.453C362.926 131.749 360.226 133.307 359.523 135.934L341.684 202.508C340.98 205.135 342.539 207.834 345.165 208.538L411.74 226.376C414.366 227.08 417.066 225.522 417.769 222.895L435.608 156.321C436.312 153.694 434.753 150.995 432.127 150.291Z" fill="white"/>
<path d="M145.196 354.657L141.605 368.057L92.3832 354.868L95.9737 341.469L145.196 354.657ZM123.366 258.089L97.0966 356.131L80.1953 351.602L106.466 253.561L123.366 258.089ZM199.335 365.122L214.256 309.435L230.552 313.802L211.03 386.659L195.677 382.546L199.335 365.122ZM205.684 350.585L211.174 351.911C209.863 356.805 208.115 361.172 205.931 365.014C203.759 368.809 201.142 371.934 198.08 374.384C195.03 376.791 191.525 378.378 187.566 379.146C183.62 379.869 179.2 379.574 174.308 378.263C170.761 377.312 167.645 375.924 164.959 374.098C162.273 372.271 160.141 369.993 158.564 367.261C157.03 364.54 156.143 361.296 155.903 357.526C155.662 353.757 156.185 349.471 157.472 344.668L170.084 297.599L186.312 301.947L173.664 349.151C172.955 351.799 172.673 354.105 172.821 356.069C172.979 357.988 173.454 359.631 174.243 360.996C175.031 362.363 176.084 363.463 177.4 364.297C178.716 365.131 180.182 365.764 181.798 366.197C186.422 367.436 190.299 367.513 193.429 366.427C196.615 365.307 199.185 363.35 201.136 360.553C203.134 357.768 204.649 354.446 205.684 350.585ZM272.652 387.51L281.961 352.764C282.66 350.161 282.789 347.79 282.352 345.652C281.914 343.514 280.869 341.67 279.215 340.121C277.606 338.583 275.365 337.429 272.492 336.659C269.844 335.95 267.434 335.784 265.263 336.165C263.092 336.546 261.264 337.355 259.778 338.593C258.291 339.83 257.29 341.414 256.772 343.344L240.612 339.014C241.381 336.142 242.823 333.544 244.936 331.224C247.05 328.904 249.713 327.043 252.927 325.643C256.141 324.243 259.75 323.429 263.757 323.204C267.762 322.978 272.055 323.479 276.634 324.705C282.11 326.174 286.712 328.393 290.439 331.363C294.21 334.347 296.808 338.026 298.234 342.402C299.717 346.744 299.713 351.699 298.221 357.266L289.543 389.654C288.653 392.976 288.077 396.021 287.816 398.79C287.612 401.526 287.701 403.98 288.082 406.151L287.792 407.228L271.16 402.772C270.867 400.816 270.856 398.432 271.129 395.617C271.459 392.771 271.967 390.068 272.652 387.51ZM282.966 358.446L280.412 368.515L268.763 365.394C265.755 364.588 263.028 364.17 260.582 364.14C258.149 364.065 256.025 364.362 254.209 365.03C252.394 365.699 250.901 366.694 249.729 368.016C248.556 369.338 247.712 370.964 247.195 372.895C246.678 374.824 246.651 376.718 247.116 378.575C247.592 380.386 248.564 381.97 250.029 383.325C251.54 384.691 253.529 385.705 255.998 386.367C259.32 387.257 262.396 387.36 265.226 386.675C268.112 385.956 270.539 384.802 272.504 383.212C274.482 381.577 275.756 379.873 276.327 378.102L279.649 386.715C278.617 388.411 277.167 390.139 275.301 391.901C273.434 393.661 271.186 395.225 268.559 396.589C265.989 397.921 263.082 398.803 259.84 399.233C256.642 399.675 253.157 399.391 249.387 398.38C244.629 397.105 240.639 395.026 237.418 392.143C234.21 389.214 231.983 385.851 230.74 382.053C229.508 378.21 229.445 374.225 230.552 370.094C231.587 366.234 233.218 363.015 235.449 360.437C237.736 357.826 240.564 355.889 243.934 354.627C247.348 353.377 251.259 352.789 255.665 352.864C260.084 352.892 264.941 353.617 270.239 355.036L282.966 358.446ZM350.437 405.61L365.358 349.923L381.654 354.289L362.132 427.147L346.78 423.033L350.437 405.61ZM356.786 391.072L362.277 392.4C360.966 397.292 359.218 401.66 357.034 405.501C354.862 409.298 352.245 412.421 349.182 414.873C346.132 417.279 342.628 418.865 338.669 419.633C334.722 420.356 330.302 420.062 325.41 418.751C321.863 417.801 318.747 416.413 316.061 414.586C313.375 412.76 311.243 410.48 309.666 407.748C308.133 405.028 307.246 401.783 307.005 398.014C306.764 394.245 307.288 389.958 308.575 385.155L321.187 338.087L337.414 342.435L324.767 389.638C324.057 392.287 323.775 394.592 323.923 396.557C324.082 398.476 324.556 400.118 325.345 401.485C326.133 402.85 327.186 403.95 328.502 404.784C329.819 405.618 331.285 406.251 332.9 406.685C337.524 407.923 341.401 408 344.531 406.914C347.717 405.795 350.287 403.837 352.239 401.041C354.236 398.256 355.752 394.933 356.786 391.072Z" fill="white"/>
</g>
<defs>
<radialGradient id="paint0_radial_87_19" cx="0" cy="0" r="1" gradientUnits="userSpaceOnUse" gradientTransform="translate(5.30833 392.697) rotate(-30) scale(724.077)">
<stop stop-color="#5071EA"/>
<stop offset="0.9999" stop-color="#00239F"/>
</radialGradient>
<clipPath id="clip0_87_19">
<rect width="512" height="512" fill="white"/>
</clipPath>
</defs>
</svg>
