<svg width="512" height="512" viewBox="0 0 512 512" fill="none" xmlns="http://www.w3.org/2000/svg">
<path d="M370.339 177.677L370.152 177.597C370.045 177.557 369.938 177.517 369.845 177.424C369.692 177.259 369.579 177.062 369.514 176.846C369.449 176.631 369.435 176.404 369.471 176.182L379.785 113.075L428.148 161.493L377.85 182.912C377.71 182.968 377.56 182.995 377.41 182.992H377.21C377.143 182.952 377.076 182.898 376.943 182.765C375.071 180.679 372.832 178.955 370.339 177.677ZM440.489 173.832L492.202 225.588C502.942 236.351 508.318 241.719 510.28 247.941C510.573 248.863 510.813 249.784 511 250.732L387.416 198.348C387.35 198.321 387.283 198.294 387.216 198.268C386.722 198.068 386.149 197.841 386.149 197.333C386.149 196.826 386.736 196.585 387.229 196.385L387.389 196.318L440.489 173.832ZM508.892 267.343C506.224 272.364 501.02 277.572 492.215 286.398L433.912 344.738L358.505 329.021L358.104 328.941C357.437 328.835 356.73 328.714 356.73 328.113C356.444 325 355.52 321.979 354.017 319.238C352.513 316.498 350.462 314.096 347.991 312.183C347.684 311.876 347.764 311.395 347.858 310.955C347.858 310.888 347.858 310.821 347.885 310.768L362.067 223.625L362.12 223.332C362.2 222.664 362.32 221.89 362.921 221.89C365.96 221.511 368.894 220.531 371.551 219.007C374.208 217.482 376.535 215.443 378.397 213.01C378.517 212.876 378.597 212.729 378.757 212.649C379.184 212.449 379.691 212.649 380.131 212.836L508.892 267.343ZM420.503 358.158L324.63 454.113L341.04 353.164L341.067 353.03C341.08 352.897 341.107 352.763 341.147 352.643C341.28 352.323 341.627 352.189 341.961 352.056L342.121 351.989C345.714 350.454 348.892 348.088 351.393 345.085C351.714 344.711 352.101 344.351 352.594 344.284C352.722 344.263 352.853 344.263 352.981 344.284L420.49 358.171L420.503 358.158ZM304.337 474.423L293.531 485.239L174.056 312.424C174.012 312.36 173.968 312.298 173.922 312.237C173.735 311.983 173.535 311.729 173.575 311.435C173.575 311.222 173.722 311.035 173.869 310.875L174.002 310.701C174.363 310.167 174.669 309.633 175.003 309.059L175.27 308.591L175.31 308.551C175.497 308.231 175.67 307.924 175.99 307.75C176.27 307.616 176.657 307.67 176.964 307.737L309.327 335.057C309.697 335.115 310.046 335.266 310.341 335.498C310.514 335.671 310.555 335.858 310.595 336.072C311.518 339.568 313.236 342.804 315.615 345.525C317.995 348.247 320.97 350.381 324.31 351.762C324.683 351.949 324.523 352.363 324.35 352.803C324.263 352.997 324.196 353.198 324.15 353.404C322.482 363.553 308.18 450.855 304.337 474.423ZM281.763 497.004C273.798 504.895 269.102 509.075 263.792 510.757C258.556 512.414 252.937 512.414 247.702 510.757C241.485 508.781 236.108 503.413 225.368 492.65L105.386 372.566L136.726 323.921C136.872 323.68 137.019 323.467 137.259 323.293C137.593 323.053 138.073 323.159 138.473 323.293C145.667 325.465 153.39 325.073 160.327 322.185C160.687 322.051 161.048 321.958 161.328 322.211C161.468 322.339 161.593 322.483 161.701 322.639L281.763 497.004ZM93.8188 360.989L66.2949 333.441L120.649 310.234C120.788 310.173 120.938 310.141 121.089 310.14C121.543 310.14 121.81 310.594 122.05 311.008C122.596 311.849 123.175 312.669 123.784 313.465L123.958 313.679C124.118 313.906 124.011 314.133 123.851 314.346L93.8188 360.989ZM54.1139 321.25L19.2921 286.398C13.3684 280.47 9.07235 276.17 6.08381 272.471L111.963 294.45C112.096 294.475 112.23 294.497 112.364 294.517C113.017 294.624 113.738 294.744 113.738 295.358C113.738 296.026 112.951 296.333 112.284 296.587L111.977 296.72L54.1139 321.25ZM0 254.551C0.120664 252.306 0.524107 250.085 1.20075 247.941C3.17532 241.719 8.53868 236.351 19.2921 225.588L63.8533 180.989C84.3706 210.791 104.944 240.556 125.572 270.281C125.932 270.762 126.332 271.296 125.919 271.697C123.971 273.846 122.023 276.197 120.649 278.747C120.5 279.075 120.27 279.36 119.982 279.575C119.808 279.682 119.622 279.642 119.421 279.602H119.395L0 254.551ZM75.7808 169.051L135.672 109.082C141.315 111.553 161.821 120.219 180.139 127.964C194.015 133.839 206.663 139.18 210.639 140.916C211.039 141.076 211.399 141.237 211.572 141.637C211.679 141.878 211.626 142.185 211.572 142.439C210.624 146.767 210.765 151.264 211.983 155.525C213.201 159.785 215.458 163.676 218.55 166.848C218.95 167.249 218.55 167.823 218.203 168.317L218.017 168.597L157.178 262.91C157.018 263.177 156.872 263.404 156.605 263.578C156.285 263.778 155.831 263.685 155.457 263.591C153.091 262.971 150.659 262.639 148.213 262.603C146.025 262.603 143.65 263.004 141.248 263.444H141.235C140.968 263.484 140.728 263.538 140.515 263.378C140.279 263.185 140.076 262.955 139.914 262.697L75.7808 169.051ZM147.799 96.9712L225.368 19.3362C236.108 8.58695 241.485 3.20565 247.702 1.24274C252.937 -0.414247 258.556 -0.414247 263.792 1.24274C270.009 3.20565 275.386 8.58695 286.126 19.3362L302.936 36.1611L247.769 121.674C247.632 121.923 247.446 122.142 247.222 122.315C246.888 122.542 246.421 122.449 246.021 122.315C241.671 120.994 237.065 120.754 232.602 121.615C228.139 122.475 223.952 124.412 220.405 127.256C220.044 127.63 219.511 127.416 219.057 127.216C211.853 124.078 155.818 100.376 147.799 96.9712ZM314.65 47.8852L365.589 98.8673L353.315 174.953V175.154C353.304 175.327 353.268 175.498 353.208 175.661C353.074 175.928 352.808 175.982 352.541 176.062C349.916 176.857 347.445 178.09 345.23 179.707C345.134 179.775 345.045 179.851 344.963 179.934C344.816 180.094 344.669 180.241 344.429 180.268C344.234 180.274 344.039 180.242 343.855 180.174L266.233 147.166L266.087 147.099C265.593 146.898 265.006 146.658 265.006 146.151C264.55 141.821 263.137 137.648 260.87 133.933C260.496 133.318 260.083 132.677 260.403 132.05L314.65 47.8852ZM262.191 162.802L334.956 193.648C335.357 193.835 335.797 194.008 335.97 194.422C336.04 194.671 336.04 194.934 335.97 195.183C335.757 196.252 335.57 197.467 335.57 198.695V200.738C335.57 201.246 335.05 201.459 334.57 201.66L334.423 201.713C322.896 206.64 172.588 270.789 172.361 270.789C172.134 270.789 171.894 270.789 171.668 270.562C171.267 270.161 171.668 269.6 172.028 269.093C172.091 269.005 172.154 268.916 172.215 268.826L232.012 176.155L232.119 175.995C232.466 175.434 232.866 174.806 233.506 174.806L234.107 174.9C235.467 175.087 236.668 175.26 237.882 175.26C246.955 175.26 255.36 170.841 260.43 163.283C260.551 163.081 260.704 162.9 260.883 162.749C261.244 162.482 261.777 162.615 262.191 162.802ZM178.859 285.45L342.695 215.52C342.695 215.52 342.935 215.52 343.162 215.747C344.055 216.642 344.816 217.243 345.55 217.803L345.91 218.03C346.244 218.217 346.577 218.431 346.604 218.778C346.604 218.912 346.604 218.992 346.577 219.112L332.542 305.4L332.488 305.747C332.395 306.415 332.301 307.176 331.674 307.176C327.932 307.429 324.309 308.591 321.117 310.562C317.925 312.532 315.261 315.252 313.356 318.486L313.29 318.593C313.103 318.9 312.929 319.194 312.622 319.354C312.342 319.487 311.982 319.434 311.689 319.367L181.033 292.394C180.9 292.367 179.005 285.464 178.859 285.45Z" fill="url(#paint0_radial_191_2)"/>
<defs>
<radialGradient id="paint0_radial_191_2" cx="0" cy="0" r="1" gradientUnits="userSpaceOnUse" gradientTransform="translate(-17.1565 248.776) rotate(90) scale(511.437 589.968)">
<stop stop-color="#20C6B7"/>
<stop offset="1" stop-color="#4D9ABF"/>
</radialGradient>
</defs>
</svg>
