<svg width="512" height="512" viewBox="0 0 512 512" fill="none" xmlns="http://www.w3.org/2000/svg">
<path d="M255.046 0.977173H256.229C262.288 3.8674 268.189 7.07797 273.908 10.5953C339.739 48.5092 405.57 86.4352 471.401 124.373C473.948 125.735 476.028 127.831 477.371 130.391C478.713 132.95 479.257 135.855 478.932 138.728C478.786 218.678 478.932 298.611 478.841 378.525C477.984 382.339 475.656 385.659 472.365 387.761C402.363 428.127 332.355 468.47 262.34 508.789C260.643 510.084 258.598 510.84 256.468 510.96C254.338 511.08 252.221 510.559 250.39 509.463C180.303 469.217 110.282 428.899 40.3285 388.507C38.055 387.431 36.1508 385.704 34.856 383.545C33.5612 381.386 32.9338 378.891 33.053 376.375C33.053 296.443 33.053 216.517 33.053 136.596C32.8814 134.092 33.4595 131.593 34.7134 129.418C35.9673 127.244 37.8399 125.494 40.092 124.392C105.838 86.5262 171.584 48.6367 237.331 10.7228C243.187 7.37104 248.935 3.81889 255.046 0.977173Z" fill="#019639"/>
<path d="M124.031 157.113C124.031 222.926 124.031 288.744 124.031 354.569C123.947 358.214 124.592 361.839 125.928 365.233C127.264 368.627 129.266 371.721 131.814 374.334C136.7 379.149 143.093 382.147 149.926 382.829C156.76 383.51 163.621 381.834 169.365 378.08C173.211 375.474 176.359 371.969 178.535 367.871C180.711 363.773 181.85 359.206 181.852 354.569C181.852 306.928 181.761 259.287 181.852 211.646C225.394 263.651 269.028 315.583 312.752 367.443C318.827 373.582 326.35 378.101 334.63 380.585C342.911 383.07 351.685 383.44 360.146 381.662C366.121 380.488 371.561 377.433 375.666 372.945C379.771 368.458 382.324 362.775 382.951 356.733C383.048 289.563 383.048 222.399 382.951 155.241C382.323 148.072 379.024 141.398 373.706 136.536C368.388 131.674 361.436 128.977 354.222 128.977C347.008 128.977 340.056 131.674 334.738 136.536C329.42 141.398 326.121 148.072 325.494 155.241C325.494 203.645 325.202 251.995 325.494 300.382C282.729 250.086 240.494 199.354 197.893 148.876C192.277 141.692 184.842 136.133 176.354 132.77C167.866 129.408 158.632 128.364 149.606 129.747C142.767 130.507 136.428 133.684 131.736 138.705C127.045 143.725 124.311 150.256 124.031 157.113Z" fill="white"/>
</svg>
