<svg width="512" height="512" viewBox="0 0 512 512" fill="none" xmlns="http://www.w3.org/2000/svg">
<g clip-path="url(#clip0_106_22)">
<circle cx="256" cy="256" r="254" fill="black"/>
<path d="M255.818 284.422L213.056 351.551L142.155 236.642L141.991 356.937H92.1562V153.6H142.55L214.189 274.045L214.257 219.529L255.818 284.422ZM264.023 205.866C264.351 205.212 264.023 154.268 264.132 153.6H214.298C214.326 154.404 214.23 205.089 214.257 205.866H264.023ZM340.946 262.237C335.129 262.125 329.42 263.817 324.606 267.079C319.791 270.342 316.108 275.014 314.063 280.454C317.451 275.39 322.468 271.632 328.284 269.799C334.1 267.968 340.368 268.171 346.052 270.377C351.459 272.572 358.572 276.131 364.211 274.236C361.566 270.535 358.076 267.515 354.03 265.429C349.984 263.342 345.499 262.248 340.946 262.237ZM387.23 276.704C382.111 274.931 376.308 272.927 372.089 267.418C371.269 266.327 370.505 265.1 369.686 263.804C367.858 260.439 365.386 257.464 362.409 255.05C358.395 252.105 353.125 250.66 346.298 250.66C339.587 250.661 333.029 252.653 327.452 256.381C321.877 260.11 317.535 265.409 314.977 271.604C318.22 267.096 322.591 263.517 327.653 261.225C332.714 258.934 338.29 258.01 343.822 258.545C349.354 259.081 354.648 261.058 359.174 264.278C363.702 267.498 367.302 271.849 369.618 276.895C370.77 278.786 372.506 280.251 374.564 281.073C376.622 281.894 378.892 282.026 381.032 281.449C387.763 280.017 387.312 286.358 397.457 288.513V286.699C397.416 280.617 394.098 279.199 387.217 276.704H387.23ZM414.864 293.967C416.353 293.063 417.574 291.782 418.406 290.254C419.239 288.727 419.651 287.006 419.602 285.267C419.466 244.946 386.698 210.448 346.284 210.448C334.136 210.438 322.176 213.446 311.481 219.202C300.787 224.957 291.694 233.28 285.022 243.419C284.885 243.064 264.242 210.829 264.023 210.448H214.257L261.539 284.395L215.404 356.937H263.737L284.762 324.675L306.171 356.937H354.517L310.69 288.049C309.964 286.707 309.571 285.211 309.543 283.685C309.542 278.867 310.49 274.096 312.335 269.644C314.18 265.192 316.885 261.148 320.296 257.74C323.706 254.332 327.756 251.629 332.213 249.785C336.67 247.941 341.446 246.992 346.271 246.992H346.284C366.6 246.992 369.986 259.127 374.369 264.827C383.025 276.09 400.31 271.154 400.31 285.84C400.341 287.524 400.813 289.171 401.68 290.617C402.548 292.062 403.778 293.255 405.251 294.077C406.723 294.9 408.385 295.322 410.072 295.303C411.759 295.283 413.411 294.823 414.864 293.967ZM419.643 295.78C417.281 300.853 411.998 300.389 409.335 304.494C406.932 308.189 410.892 310.112 410.892 310.112C410.892 310.112 415.492 312.239 418.237 305.871C419.657 302.721 420.148 299.217 419.643 295.78Z" fill="white"/>
</g>
<defs>
<clipPath id="clip0_106_22">
<rect width="512" height="512" fill="white"/>
</clipPath>
</defs>
</svg>
