<svg width="512" height="512" viewBox="0 0 512 512" fill="none" xmlns="http://www.w3.org/2000/svg">
<path d="M329.884 83.802C329.884 97.3866 340.902 108.395 354.495 108.395H447.882C458.852 108.395 464.337 121.652 456.578 129.381L337.08 248.785C332.464 253.399 329.86 259.653 329.86 266.188V307.012C329.86 323.993 346.716 335.774 361.623 327.67C376.812 319.425 390.945 309.448 403.721 298.018C408.785 293.498 416.568 293.451 421.371 298.276L508.404 385.241C513.21 390.043 513.234 397.84 508.265 402.48C442.258 464.195 353.535 502 256 502C158.465 502 69.7448 464.195 3.73839 402.48C-1.23407 397.84 -1.21031 390.043 3.59583 385.241L90.6291 298.276C95.4353 293.474 103.218 293.498 108.282 298.018C121.054 309.448 135.191 319.425 150.38 327.67C165.311 335.774 182.139 323.993 182.139 307.012V266.188C182.139 259.653 179.539 253.399 174.92 248.785L55.4214 129.381C47.6624 121.628 53.1507 108.395 64.1206 108.395H157.504C171.101 108.395 182.119 97.3866 182.119 83.802V22.2965C182.119 15.5041 187.624 10 194.423 10H317.509C324.307 10 329.813 15.5041 329.813 22.2965V83.802H329.884Z" fill="#32F3EF"/>
</svg>
