<svg width="512" height="512" viewBox="0 0 512 512" fill="none" xmlns="http://www.w3.org/2000/svg">
<g clip-path="url(#clip0_83_292)">
<path d="M168.76 280.703C149.647 286.127 137.108 295.637 128.848 305.14C136.76 298.217 147.357 291.863 161.653 287.81C176.274 283.666 188.748 283.696 199.055 285.685V277.625C190.262 276.821 180.182 277.462 168.76 280.703ZM127.975 212.949L56.9928 231.65C56.9928 231.65 58.2865 233.477 60.6819 235.915L120.865 220.057C120.865 220.057 120.013 231.046 112.606 240.877C126.616 230.278 127.975 212.949 127.975 212.949ZM187.391 379.768C87.5008 406.673 34.6521 290.91 18.6517 230.825C11.2594 203.09 8.03233 182.085 7.17221 168.53C7.0798 167.122 7.12252 165.936 7.22204 164.848C2.04026 165.161 -0.440569 167.855 0.0641713 175.639C0.924291 189.187 4.15133 210.19 11.5437 237.934C27.537 298.01 80.3927 413.773 180.283 386.869C202.026 381.011 218.361 370.343 230.622 356.724C219.32 366.931 205.175 374.97 187.391 379.768ZM206.163 142.102V149.211H245.343C244.539 146.694 243.73 144.426 242.926 142.102H206.163Z" fill="#2D4552"/>
<path d="M254.1 200.65C271.721 205.655 281.04 218.009 285.966 228.941L305.613 234.521C305.613 234.521 302.932 196.259 268.323 186.428C235.946 177.229 216.022 204.418 213.598 207.936C223.016 201.226 236.77 195.732 254.1 200.65ZM410.493 229.118C378.086 219.877 358.169 247.123 355.781 250.592C365.207 243.889 378.953 238.394 396.276 243.334C413.868 248.346 423.18 260.685 428.121 271.625L447.796 277.226C447.796 277.226 445.072 238.956 410.493 229.118ZM390.973 330.003L227.537 284.313C227.537 284.313 229.307 293.283 236.096 304.899L373.701 343.367C385.03 336.813 390.973 330.003 390.973 330.003ZM277.663 428.351C148.253 393.656 163.898 228.771 184.838 150.638C193.46 118.438 202.324 94.5056 209.675 78.4627C205.289 77.5599 201.657 79.8701 198.067 87.1701C190.263 103 180.282 128.774 170.623 164.854C149.689 242.986 134.044 407.865 263.448 442.561C324.442 458.901 371.958 434.066 407.379 395.063C373.758 425.515 330.832 442.589 277.663 428.351Z" fill="#2D4552"/>
<path d="M206.16 341.129V307.856L113.713 334.07C113.713 334.07 120.544 294.38 168.758 280.703C183.379 276.559 195.854 276.587 206.16 278.577V142.102H252.448C247.408 126.528 242.533 114.538 238.438 106.206C231.664 92.4168 224.719 101.558 208.954 114.744C197.851 124.02 169.788 143.809 127.56 155.188C85.3302 166.575 51.1901 163.555 36.9455 161.088C16.7513 157.604 6.18871 153.17 7.17683 168.53C8.0368 182.077 11.264 203.083 18.6564 230.825C34.6495 290.903 87.5052 406.665 187.396 379.761C213.488 372.731 231.906 358.834 244.672 341.122H206.16V341.129ZM56.9832 231.65L127.972 212.949C127.972 212.949 125.903 240.258 99.2905 247.274C72.6707 254.282 56.9832 231.65 56.9832 231.65Z" fill="#E2574C"/>
<path d="M473.329 143.68C454.877 146.915 410.607 150.945 355.897 136.28C301.172 121.624 264.863 95.992 250.478 83.9438C230.085 66.863 221.114 54.9925 212.286 72.9476C204.482 88.7844 194.501 114.558 184.841 150.639C163.908 228.771 148.263 393.65 277.665 428.345C407.04 463.011 475.916 312.39 496.85 234.251C506.51 198.178 510.746 170.861 511.912 153.248C513.241 133.296 499.536 139.088 473.329 143.68ZM213.338 208.322C213.338 208.322 233.731 176.604 268.318 186.435C302.927 196.266 305.607 234.529 305.607 234.529L213.338 208.322ZM297.767 350.647C236.93 332.826 227.547 284.313 227.547 284.313L390.975 330.005C390.975 329.998 357.987 368.245 297.767 350.647ZM355.549 250.948C355.549 250.948 375.913 219.253 410.494 229.112C445.074 238.958 447.797 277.22 447.797 277.22L355.549 250.948Z" fill="#2EAD33"/>
<path d="M173.857 317.018L113.716 334.063C113.716 334.063 120.249 296.846 164.553 282.097L130.498 154.294L127.555 155.188C85.3263 166.576 51.1861 163.555 36.9416 161.088C16.7475 157.606 6.18493 153.17 7.17291 168.531C8.03302 182.079 11.2601 203.083 18.6524 230.827C34.6457 290.903 87.5015 406.665 187.391 379.761L190.334 378.837L173.857 317.018ZM56.9864 231.651L127.975 212.949C127.975 212.949 125.906 240.258 99.2936 247.274C72.674 254.282 56.9864 231.651 56.9864 231.651Z" fill="#D65348"/>
<path d="M300.511 351.314L297.76 350.645C236.923 332.826 227.54 284.313 227.54 284.313L311.814 307.869L356.43 136.422L355.89 136.28C301.165 121.624 264.858 95.992 250.47 83.9438C230.078 66.863 221.107 54.9925 212.279 72.9476C204.482 88.7844 194.501 114.558 184.841 150.639C163.908 228.771 148.263 393.65 277.665 428.344L280.317 428.942L300.511 351.314ZM213.338 208.322C213.338 208.322 233.731 176.604 268.318 186.435C302.928 196.266 305.608 234.529 305.608 234.529L213.338 208.322Z" fill="#1D8D22"/>
<path d="M176.923 316.144L160.794 320.722C164.605 342.202 171.321 362.815 181.862 381.026C183.697 380.621 185.517 380.273 187.385 379.761C192.283 378.44 196.825 376.804 201.197 375.019C189.419 357.541 181.628 337.411 176.923 316.144ZM170.625 164.856C162.337 195.79 154.922 240.315 156.963 284.974C160.616 283.389 164.476 281.912 168.762 280.695L171.748 280.028C168.108 232.325 175.977 183.713 184.84 150.639C187.087 142.272 189.34 134.49 191.586 127.232C187.968 129.534 184.073 131.894 179.637 134.325C176.645 143.56 173.624 153.653 170.625 164.856Z" fill="#C04B41"/>
</g>
<defs>
<clipPath id="clip0_83_292">
<rect width="512" height="512" fill="white"/>
</clipPath>
</defs>
</svg>
