<svg width="512" height="512" viewBox="0 0 512 512" fill="none" xmlns="http://www.w3.org/2000/svg">
<g clip-path="url(#clip0_96_57)">
<path d="M256 512C397.385 512 512 397.385 512 256C512 114.615 397.385 0 256 0C114.615 0 0 114.615 0 256C0 397.385 114.615 512 256 512Z" fill="#308BE3" stroke="#073C8C" stroke-miterlimit="10"/>
<path d="M119.166 202.457C110.577 193.392 96.2109 192.915 87.0927 201.45C77.9744 209.985 77.4973 224.298 86.0854 233.363L138.356 288.709L140.954 291.466L285.043 156.707L252.281 122.036L231.5 100.036L188.931 54.9746C180.343 45.9094 165.976 45.4322 156.858 53.9674C147.74 62.5025 147.262 76.8159 155.851 85.8811L198.155 130.677C203.986 136.827 203.668 146.528 197.466 152.36C191.263 158.138 181.509 157.873 175.677 151.67L155.32 130.147C146.732 121.082 132.366 120.605 123.248 129.14C114.129 137.675 113.652 151.988 122.24 161.054L152.723 193.339C158.554 199.488 158.236 209.19 152.034 215.021C145.831 220.799 136.077 220.534 130.245 214.332L118.901 202.298" fill="#D6E9FB"/>
<path d="M314.651 335.148C313.537 335.148 312.371 334.724 311.523 333.876L301.927 324.334C297.421 319.828 294.93 313.837 294.93 307.476C294.93 301.114 297.421 295.124 301.927 290.617L361.196 231.614C368.671 224.139 372.806 214.226 372.806 203.676C372.806 193.126 368.671 183.213 361.196 175.738L343.225 157.82C338.931 153.579 333.258 151.246 327.215 151.246C321.171 151.246 315.499 153.579 311.205 157.82C309.455 159.569 306.646 159.569 304.896 157.82C303.147 156.07 303.147 153.261 304.896 151.511C310.834 145.574 318.786 142.34 327.162 142.34C335.538 142.34 343.49 145.627 349.427 151.511L367.399 169.43C376.57 178.601 381.659 190.741 381.659 203.676C381.659 216.611 376.623 228.804 367.399 237.923L308.13 296.926C305.32 299.736 303.73 303.5 303.73 307.476C303.73 311.452 305.267 315.216 308.13 318.025L317.725 327.568C319.475 329.317 319.475 332.127 317.725 333.876C316.877 334.724 315.711 335.201 314.544 335.201L314.651 335.148Z" fill="#073C8C"/>
<path d="M194.575 208.076L133.398 268.935C123.909 278.371 123.909 293.692 133.398 303.129L135.837 305.567L157.731 327.356C167.221 336.792 182.594 336.792 192.084 327.356L200.99 318.502L227.921 291.731L246.581 273.176L276.693 243.224L319.686 200.442C329.175 191.006 329.175 175.685 319.686 166.249L295.353 142.022C285.864 132.586 270.49 132.586 261.001 142.022L194.628 208.076" fill="#D6E9FB"/>
<path d="M174.963 338.859C167.594 338.859 160.225 336.05 154.606 330.483L130.273 306.256C124.813 300.849 121.844 293.639 121.844 286.005C121.844 278.371 124.866 271.162 130.273 265.754L191.45 204.895C191.45 204.895 191.556 204.789 191.609 204.736L257.822 138.841C269.008 127.708 287.244 127.708 298.483 138.841L322.816 163.068C328.277 168.475 331.245 175.685 331.245 183.319C331.245 190.953 328.224 198.163 322.816 203.57L195.267 330.483C189.647 336.05 182.332 338.859 174.963 338.859ZM197.546 211.416L136.581 272.116C132.817 275.827 130.75 280.81 130.75 286.058C130.75 291.307 132.817 296.29 136.581 300.001L160.914 324.228C168.654 331.915 181.271 331.915 189.011 324.228L316.561 197.315C320.325 193.604 322.392 188.62 322.392 183.372C322.392 178.124 320.325 173.141 316.561 169.43L292.228 145.203C284.488 137.516 271.871 137.516 264.131 145.203L197.758 211.257C197.758 211.257 197.652 211.363 197.599 211.416H197.546Z" fill="#073C8C"/>
<path d="M280.57 243.171C278.185 243.171 276.223 241.262 276.117 238.877L274.262 183.849C274.156 181.411 276.117 179.343 278.556 179.237C280.995 179.131 283.062 181.093 283.168 183.531L285.024 238.559C285.13 240.997 283.168 243.065 280.73 243.171C280.73 243.171 280.623 243.171 280.57 243.171Z" fill="#073C8C"/>
<path d="M250.875 215.657C248.49 215.657 246.528 213.749 246.422 211.363L244.567 155.858C244.461 153.42 246.422 151.352 248.861 151.246C248.861 151.246 248.967 151.246 249.02 151.246C251.405 151.246 253.367 153.155 253.473 155.54L255.328 211.045C255.434 213.484 253.473 215.551 251.034 215.657C251.034 215.657 250.928 215.657 250.875 215.657Z" fill="#073C8C"/>
<path d="M230.067 294.116C227.682 294.116 225.72 292.208 225.614 289.822L223.653 230.66C223.547 228.221 225.508 226.154 227.947 226.048C230.385 225.995 232.453 227.903 232.559 230.342L234.52 289.504C234.626 291.943 232.665 294.01 230.226 294.116C230.226 294.116 230.12 294.116 230.067 294.116Z" fill="#073C8C"/>
<path d="M199.938 265.595C197.552 265.595 195.591 263.687 195.485 261.301L193.629 205.691C193.523 203.252 195.485 201.185 197.923 201.078C200.362 200.972 202.429 202.934 202.535 205.373L204.391 260.983C204.497 263.422 202.535 265.489 200.097 265.595C200.097 265.595 199.991 265.595 199.938 265.595Z" fill="#073C8C"/>
<path d="M175.828 338.859C173.443 338.859 171.481 336.951 171.375 334.565L169.52 279.485C169.414 277.046 171.375 274.979 173.814 274.873C176.252 274.767 178.32 276.728 178.426 279.167L180.281 334.247C180.387 336.686 178.426 338.753 175.987 338.859C175.987 338.859 175.881 338.859 175.828 338.859Z" fill="#073C8C"/>
<path d="M278.705 172.08C281.135 172.08 283.105 170.11 283.105 167.68C283.105 165.25 281.135 163.28 278.705 163.28C276.275 163.28 274.305 165.25 274.305 167.68C274.305 170.11 276.275 172.08 278.705 172.08Z" fill="#073C8C"/>
<path d="M173.377 266.338C175.807 266.338 177.777 264.368 177.777 261.937C177.777 259.507 175.807 257.537 173.377 257.537C170.947 257.537 168.977 259.507 168.977 261.937C168.977 264.368 170.947 266.338 173.377 266.338Z" fill="#073C8C"/>
<path d="M328.103 315.11C331.284 311.982 336.32 311.717 339.766 314.526L410.644 372.258C427.98 386.677 429.199 412.813 413.189 428.769C398.027 443.878 373.641 443.56 358.798 428.769C358.003 427.974 357.207 427.073 356.412 426.172L297.992 356.195C295.076 352.749 295.341 347.607 298.522 344.426L328.103 315.057V315.11Z" fill="#073C8C"/>
<mask id="mask0_96_57" style="mask-type:luminance" maskUnits="userSpaceOnUse" x="295" y="312" width="130" height="128">
<path d="M328.103 315.11C331.284 311.982 336.32 311.717 339.766 314.526L410.644 372.258C427.98 386.677 429.199 412.813 413.189 428.769C398.027 443.878 373.641 443.56 358.798 428.769C358.003 427.974 357.207 427.073 356.412 426.172L297.992 356.195C295.076 352.749 295.341 347.607 298.522 344.426L328.103 315.057V315.11Z" fill="white"/>
</mask>
<g mask="url(#mask0_96_57)">
<path d="M345.162 314.755L297.367 362.55L302.803 367.985L350.597 320.191L345.162 314.755Z" fill="#D6E9FB"/>
</g>
</g>
<defs>
<clipPath id="clip0_96_57">
<rect width="512" height="512" fill="white"/>
</clipPath>
</defs>
</svg>
