<svg width="512" height="512" viewBox="0 0 512 512" fill="none" xmlns="http://www.w3.org/2000/svg">
<g clip-path="url(#clip0_82_243)">
<circle cx="256" cy="256" r="256" fill="white"/>
<path d="M383.342 228.789C383.342 195.314 377.258 163.177 365.194 133.203C362.823 134.233 360.863 135.16 359.627 135.778C354.162 138.559 351.068 144.533 351.79 150.61C353.234 163.074 354.162 177.597 354.162 190.679C354.162 251.862 334.364 310.572 298.481 355.997C264.558 398.948 218.984 426.45 169.387 434.38C169.49 434.38 169.696 434.586 169.799 434.586C198.774 451.067 234.244 452.097 264.146 437.471C334.158 403.068 383.445 322.418 383.445 228.686H383.342V228.789Z" fill="#D3121D"/>
<path d="M397.054 127.022C392.414 126.919 388.084 127.228 384.063 127.846C396.538 159.571 402.932 193.562 402.932 228.789C402.932 333.85 344.262 427.273 258.68 461.264C263.01 461.573 267.341 461.676 271.775 461.676H272.393C313.637 461.676 352.82 442.723 378.701 410.689C411.489 370.107 431.597 315.619 431.597 255.672C431.597 209.321 419.739 164.927 397.157 127.022H397.054Z" fill="#D3121D"/>
<path d="M477.897 255.674C477.897 227.657 472.33 200.979 462.224 176.671C457.584 165.444 451.089 155.143 442.427 146.594C437.581 141.856 432.425 137.839 426.857 134.955C425.415 134.234 423.971 133.513 422.527 132.895C441.191 170.079 451.089 212.309 451.089 255.674C451.089 316.548 431.291 375.156 396.027 420.065C445.831 382.469 478 322.831 478 255.674H477.897Z" fill="#D3121D"/>
<path d="M419.643 112.088C382.11 73.5648 329.729 49.5654 271.678 49.5654C157.638 49.5654 64.2196 143.915 65.4569 257.733C65.7663 285.543 71.5405 312.117 81.8516 336.219C78.4489 335.807 75.0463 335.601 71.6435 335.807C62.3636 336.219 49.3717 332.924 43.3912 331.275C37.617 329.628 32.1522 334.366 34.6268 339.928V340.135C55.1458 386.999 100.515 417.489 143.821 417.386C146.708 417.386 149.595 417.18 152.482 416.974C253.943 409.248 334.472 310.778 334.472 190.885C334.472 183.365 334.163 175.846 333.544 168.327C333.236 164.207 327.977 162.765 325.502 166.061C297.455 203.141 255.903 268.445 203.832 234.454C183.931 221.373 173.105 193.356 179.188 164.722C190.014 113.427 249.922 79.7449 276.216 90.2512C278.277 91.0751 285.702 94.0623 288.176 100.757C291.992 111.058 280.443 119.607 274.462 137.838C268.069 157.614 271.678 178.627 276.216 179.451C281.165 180.481 289.62 162.146 310.345 145.357C325.399 133.306 336.741 129.804 343.855 117.032C350.764 104.671 338.495 91.2812 342.619 90.1481C346.846 88.9122 350.661 103.435 363.035 110.543C373.346 116.517 382.626 112.809 396.236 112.294C396.236 112.294 402.01 112.088 411.393 113.427C411.393 113.427 414.074 113.839 418.302 114.663C419.746 114.972 420.777 113.118 419.746 112.088H419.643ZM265.905 270.917C267.45 269.165 270.338 265.767 275.288 265.251C276.216 265.251 281.165 264.736 284.464 267.827C289.31 272.462 287.969 281.423 283.639 286.573C279.618 291.311 271.781 294.504 266.214 290.899C261.573 287.912 261.367 281.526 261.367 281.011C261.367 276.067 264.255 272.668 265.802 270.917H265.905Z" fill="#290042"/>
</g>
<defs>
<clipPath id="clip0_82_243">
<rect width="512" height="512" fill="white"/>
</clipPath>
</defs>
</svg>
