<svg width="512" height="512" viewBox="0 0 512 512" fill="none" xmlns="http://www.w3.org/2000/svg">
<path d="M384.917 195.342C420.306 173.495 438 147.233 438 116.556C438 85.8778 420.306 59.6157 384.917 37.7694C349.528 15.9231 306.556 5 256 5C205.444 5 162.472 15.9231 127.083 37.7694C91.6944 59.6157 74 85.8778 74 116.556C74 147.233 91.6944 173.495 127.083 195.342C162.472 217.188 205.444 228.111 256 228.111C306.556 228.111 349.528 217.188 384.917 195.342ZM307.819 291.907C328.547 287.956 348.517 281.565 367.728 272.733C386.939 263.902 403.454 252.398 417.272 238.221C431.091 224.044 438 206.73 438 186.278V256C438 276.452 431.091 293.766 417.272 307.943C403.454 322.12 386.939 333.624 367.728 342.456C348.517 351.287 328.547 357.678 307.819 361.629C287.092 365.58 269.819 367.556 256 367.556C242.181 367.556 224.908 365.58 204.181 361.629C183.453 357.678 163.483 351.287 144.272 342.456C125.061 333.624 108.546 322.12 94.7278 307.943C80.9093 293.766 74 276.452 74 256V186.278C74 206.73 80.9093 224.044 94.7278 238.221C108.546 252.398 125.061 263.902 144.272 272.733C163.483 281.565 183.453 287.956 204.181 291.907C224.908 295.858 242.181 297.833 256 297.833C269.819 297.833 287.092 295.858 307.819 291.907ZM307.819 431.351C328.547 427.4 348.517 421.009 367.728 412.178C386.939 403.346 403.454 391.842 417.272 377.665C431.091 363.488 438 346.174 438 325.722V395.444C438 415.896 431.091 433.211 417.272 447.388C403.454 461.564 386.939 473.069 367.728 481.9C348.517 490.731 328.547 497.123 307.819 501.074C287.092 505.025 269.819 507 256 507C242.181 507 224.908 505.025 204.181 501.074C183.453 497.123 163.483 490.731 144.272 481.9C125.061 473.069 108.546 461.564 94.7278 447.388C80.9093 433.211 74 415.896 74 395.444V325.722C74 346.174 80.9093 363.488 94.7278 377.665C108.546 391.842 125.061 403.346 144.272 412.178C163.483 421.009 183.453 427.4 204.181 431.351C224.908 435.302 242.181 437.278 256 437.278C269.819 437.278 287.092 435.302 307.819 431.351Z" fill="#FF4BA8"/>
</svg>
