<svg width="512" height="512" viewBox="0 0 512 512" fill="none" xmlns="http://www.w3.org/2000/svg">
<path d="M385.898 26.2912H68.5674C47.2996 26.2912 29.8984 43.6835 29.8984 64.9359V414.651C29.8984 435.902 47.2996 453.291 68.5674 453.291H277.57C275.198 349.37 310.71 147.692 385.898 26.2912Z" fill="#0F80CC"/>
<path d="M373.898 37.2912H68.273C53.1804 37.2912 40.8984 49.5836 40.8984 64.6958V389.291C110.116 362.696 214.003 339.749 285.835 340.791C300.269 265.231 342.693 117.15 373.898 37.2912Z" fill="url(#paint0_linear_194_2)"/>
<path d="M459.707 14.2834C437.951 -5.10853 411.608 2.68093 385.609 25.7422C381.75 29.1683 377.899 32.9693 374.068 37.0296C329.593 84.1851 288.31 171.532 275.484 238.239C280.48 248.366 284.383 261.289 286.953 271.16C287.611 273.693 288.206 276.07 288.681 278.092C289.81 282.878 290.417 285.981 290.417 285.981C290.417 285.981 290.018 284.473 288.381 279.731C288.07 278.822 287.723 277.829 287.312 276.66C287.136 276.178 286.893 275.591 286.626 274.965C283.724 268.225 275.699 253.998 272.168 247.804C269.147 256.71 266.477 265.042 264.242 272.58C274.438 291.225 280.652 323.179 280.652 323.179C280.652 323.179 280.113 321.108 277.551 313.88C275.276 307.488 263.947 287.649 261.263 283.01C256.672 299.949 254.848 311.384 256.493 314.169C259.687 319.564 262.729 328.873 265.399 339.168C271.433 362.36 275.627 390.594 275.627 390.594C275.627 390.594 275.763 392.465 275.991 395.345C275.153 414.821 275.655 435.014 277.164 453.266C279.163 477.427 282.926 498.183 287.723 509.291L290.979 507.517C283.936 485.632 281.075 456.951 282.328 423.874C284.223 373.316 295.864 312.345 317.373 248.797C353.712 152.866 404.13 75.8971 450.274 39.1395C408.216 77.1016 351.294 199.982 334.254 245.486C315.175 296.443 301.654 344.261 293.505 390.075C307.564 347.125 353.022 328.663 353.022 328.663C353.022 328.663 375.317 301.181 401.372 261.919C385.765 265.477 360.137 271.567 351.553 275.173C338.891 280.481 335.479 282.292 335.479 282.292C335.479 282.292 376.495 257.328 411.684 246.025C460.079 169.845 512.803 61.6224 459.707 14.2834Z" fill="#00ADFF"/>
<defs>
<linearGradient id="paint0_linear_194_2" x1="232.911" y1="44.4947" x2="232.911" y2="369.716" gradientUnits="userSpaceOnUse">
<stop stop-color="#97D9F6"/>
<stop offset="0.920245" stop-color="#0F80CC"/>
<stop offset="1" stop-color="#0F80CC"/>
</linearGradient>
</defs>
</svg>
