<svg width="512" height="512" viewBox="0 0 512 512" fill="none" xmlns="http://www.w3.org/2000/svg">
<g clip-path="url(#clip0_83_334)">
<path fill-rule="evenodd" clip-rule="evenodd" d="M259.478 500.156C315.49 298.752 313.869 297.852 354.338 154.277L364.064 159.928C369.359 162.988 373.682 160.468 373.682 154.349V85.9001C384.416 48.067 392.845 18.8373 395.294 10.036H439.149L512.001 77.9267L464.166 119.503L500.367 158.848L261.873 500.156C260.702 502.082 259.082 501.65 259.442 500.156H259.478Z" fill="#00C8FF"/>
<path fill-rule="evenodd" clip-rule="evenodd" d="M285.536 66.1016C287.697 66.1016 289.444 67.2895 289.444 68.8014V103.899C289.444 105.339 287.823 106.562 285.662 106.562H226.768C224.606 106.562 222.805 105.357 222.805 103.863V68.7654C222.805 67.2895 224.606 66.1016 226.768 66.1016H285.662H285.536ZM358.226 27.2247L293.424 64.8417C294.181 66.0116 294.631 67.3615 294.631 68.8014V103.899C294.631 105.699 293.91 107.318 292.65 108.668L358.027 146.645C362.35 149.255 366.132 147.131 366.132 141.966V31.9583C366.132 26.7747 362.35 24.6509 358.027 27.2427L358.226 27.2247ZM217.51 103.899V68.8014C217.51 67.3615 217.961 66.0116 218.699 64.8417L153.898 27.2247C149.449 24.6509 145.793 26.7747 145.793 31.9403V141.912C145.793 147.131 149.431 149.111 153.898 146.591L219.365 108.614C218.195 107.174 217.492 105.555 217.492 103.755L217.51 103.899Z" fill="#00C8FF"/>
<path fill-rule="evenodd" clip-rule="evenodd" d="M250.092 500.156H252.506C196.493 298.752 198.114 297.852 157.663 154.277L147.937 159.928C142.642 162.988 138.302 160.468 138.302 154.349V85.9001C127.514 48.049 119.049 18.8193 116.527 10H72.762L0 77.9087L47.8176 119.485L11.6167 158.83L250.074 500.084L250.092 500.156Z" fill="#00C8FF"/>
<path d="M254.217 179.817C263.985 179.817 271.904 171.855 271.904 162.034C271.904 152.213 263.985 144.252 254.217 144.252C244.45 144.252 236.531 152.213 236.531 162.034C236.531 171.855 244.45 179.817 254.217 179.817Z" fill="#00C8FF"/>
<path d="M254.217 285.595C263.985 285.595 271.904 277.633 271.904 267.812C271.904 257.991 263.985 250.029 254.217 250.029C244.45 250.029 236.531 257.991 236.531 267.812C236.531 277.633 244.45 285.595 254.217 285.595Z" fill="#00C8FF"/>
<path d="M254.217 391.372C263.985 391.372 271.904 383.411 271.904 373.59C271.904 363.769 263.985 355.807 254.217 355.807C244.45 355.807 236.531 363.769 236.531 373.59C236.531 383.411 244.45 391.372 254.217 391.372Z" fill="#00C8FF"/>
</g>
<defs>
<clipPath id="clip0_83_334">
<rect width="512" height="512" fill="white"/>
</clipPath>
</defs>
</svg>
