<svg width="512" height="512" viewBox="0 0 512 512" fill="none" xmlns="http://www.w3.org/2000/svg">
<circle cx="256" cy="256" r="254" fill="black"/>
<path d="M298.818 370C266.942 370 239.943 358.956 217.82 336.869C195.698 314.781 184.636 287.825 184.636 256C184.636 224.412 195.698 197.516 217.82 175.309C239.943 153.103 266.942 142 298.818 142C330.456 142 357.396 153.103 379.637 175.309C401.879 197.516 413 224.412 413 256C413 287.825 401.879 314.781 379.637 336.869C357.396 358.956 330.456 370 298.818 370ZM331.289 309.081L351.627 288.775L313.091 250.3V199H284.545V262.056L331.289 309.081ZM113.273 213.25V184.75H170.364V213.25H113.273ZM99 270.25V241.75H170.364V270.25H99ZM113.273 327.25V298.75H170.364V327.25H113.273Z" fill="#0075F3"/>
</svg>
