<svg width="512" height="512" viewBox="0 0 512 512" fill="none" xmlns="http://www.w3.org/2000/svg">
<path d="M291.619 323.093C292.434 323.909 294.063 325.133 295.285 325.133H316.871C318.093 325.133 319.722 323.909 320.537 323.093L326.239 316.975C327.054 316.16 327.461 315.344 327.461 314.528L333.57 293.727C333.978 291.688 333.57 289.649 332.348 288.425L327.868 284.754C327.054 283.939 325.425 284.346 324.203 284.346H304.653L303.838 283.531L303.431 283.123C302.616 283.123 301.802 282.715 300.987 283.531L293.249 288.425C292.434 288.425 292.027 290.464 291.619 291.28L285.103 311.265C284.288 313.305 284.696 315.752 286.325 317.383L291.619 323.093ZM294.878 430.769L293.249 431.177H288.361L317.686 345.118C318.501 342.263 317.279 339 314.428 338.184L312.799 337.776H263.516C261.48 338.184 259.851 339.816 259.444 341.855L256.593 352.052C255.778 354.907 257.814 357.354 260.665 358.17L261.887 357.762H269.219L239.486 443.005C238.672 445.86 239.894 449.531 242.745 450.754L244.374 451.978H289.99C292.434 451.978 294.471 449.939 295.285 447.491L298.136 437.703C299.358 434.848 297.729 431.585 294.878 430.769ZM511.149 350.42L503.41 340.224V339.816C502.188 338.592 500.966 337.369 499.337 337.369H470.012C468.383 337.369 467.161 339 465.94 339.816L457.794 349.604H445.168L436.615 339.816V339.408C435.8 338.184 434.171 337.369 432.542 337.369H416.25L498.523 254.98L406.475 163.619L488.748 78.7838V42.0762L477.344 27.3931H310.762L297.322 41.6683V53.4963L251.298 7L219.936 37.5897L210.162 27.3931H45.6165L32.5832 42.484V80.8231L44.8019 92.6511H57.0206V199.103L0 256.204L57.0206 313.305V443.821L78.1996 455.649H125.445L162.509 416.902L250.483 505L309.54 445.86C309.948 447.491 311.169 447.899 313.206 448.715L314.835 447.899H353.12C355.564 447.899 357.6 447.491 358.008 445.452L360.859 437.295C361.673 434.44 360.451 431.993 357.6 431.177L355.971 431.585H354.342L368.19 387.944L377.558 378.563H397.922L377.558 443.413C376.743 446.268 378.372 447.899 381.223 449.123L382.852 448.307H419.916C421.952 448.307 423.989 447.899 424.803 445.86L428.062 438.518C429.283 435.663 427.654 433.216 425.211 431.993C424.803 431.585 423.989 431.993 423.174 431.993H421.545L438.651 378.971H463.496L442.724 443.821C441.909 446.676 443.539 448.307 446.39 449.123L448.019 447.899H488.748C490.784 447.899 492.821 447.491 493.635 445.452L496.894 437.295C498.115 434.44 496.486 431.993 493.635 431.177C493.228 430.769 492.413 431.585 491.599 431.585H488.748L511.556 356.13C512.371 354.091 511.963 351.644 511.149 350.42ZM251.298 14.7494L297.322 60.8378V80.0074L311.169 96.7297H317.686L199.572 210.931V96.7297H213.013L224.009 79.5995V43.2998L223.195 42.0762L251.298 14.7494ZM7.73851 256.204L57.0206 206.853V305.555L7.73851 256.204ZM166.174 412.415L404.031 167.698L491.191 255.388L408.919 337.776H408.512C407.29 338.184 406.475 339 405.661 339.816L397.108 349.604H385.296L376.336 339.816C375.521 338.592 373.892 337.369 372.263 337.369H336.421C333.978 337.369 331.941 339 331.127 341.447L327.868 351.644C327.054 354.499 328.276 356.946 331.127 358.17H337.236L311.169 435.256L249.669 497.251L166.174 412.415Z" fill="#179A33"/>
</svg>
