<svg width="512" height="512" viewBox="0 0 512 512" fill="none" xmlns="http://www.w3.org/2000/svg">
<path d="M131.641 31.6476L191.961 140.47L136.565 240.184C133.913 244.946 132.521 250.306 132.521 255.756C132.521 261.207 133.913 266.567 136.565 271.329L191.961 371.288L131.641 480.111C120.291 474.484 110.866 465.616 104.558 454.629L8.53827 287.825C2.94391 278.085 0 267.05 0 255.818C0 244.586 2.94391 233.55 8.53827 223.811L104.558 57.0067C110.885 46.0655 120.308 37.2417 131.641 31.6476Z" fill="url(#paint0_linear_116_2)"/>
<path opacity="0.7" d="M136.567 240.307C133.937 245.054 132.557 250.391 132.557 255.818C132.557 261.244 133.937 266.582 136.567 271.329L191.963 371.288L131.642 480.111C120.292 474.484 110.867 465.616 104.56 454.629L8.53967 287.825C0.907293 274.653 43.624 258.895 136.567 240.43V240.307Z" fill="url(#paint1_linear_116_2)"/>
<path opacity="0.5" d="M137.799 42.6037L191.964 140.47L182.977 156.104L135.213 75.2259C121.426 52.6981 100.375 64.3929 74.0312 109.941L77.9705 103.17L104.561 57.0067C110.821 46.1013 120.155 37.2813 131.397 31.6476L137.675 42.6037H137.799Z" fill="url(#paint2_linear_116_2)"/>
<path d="M407.393 57.0067L503.413 223.811C514.862 243.508 514.862 268.128 503.413 287.825L407.393 454.629C401.778 464.354 393.704 472.431 383.98 478.049C374.257 483.667 363.227 486.628 351.997 486.636H255.977L375.386 271.329C378.016 266.582 379.396 261.244 379.396 255.818C379.396 250.391 378.016 245.054 375.386 240.307L255.977 25H351.997C363.227 25.0072 374.257 27.9684 383.98 33.5864C393.704 39.2044 401.778 47.2815 407.393 57.0067Z" fill="url(#paint3_linear_116_2)"/>
<path d="M347.07 485.897L252.281 486.759L367.013 270.344C369.578 265.532 370.92 260.163 370.92 254.71C370.92 249.257 369.578 243.888 367.013 239.076L252.281 25H273.947L394.342 238.091C397.195 243.125 398.684 248.817 398.663 254.603C398.641 260.389 397.109 266.07 394.219 271.083C368.308 316.116 342.579 361.254 317.033 406.496C293.644 447.612 303.738 474.079 347.07 485.897Z" fill="url(#paint4_linear_116_2)"/>
<path d="M159.954 486.636C150.106 486.636 140.258 484.297 131.641 480.111L250.066 266.528C253.759 259.88 253.759 251.755 250.066 245.108L131.641 31.6476C140.443 27.2887 150.131 25.0141 159.954 25H255.974L375.384 240.307C378.014 245.054 379.394 250.391 379.394 255.818C379.394 261.244 378.014 266.582 375.384 271.329L255.974 486.636H159.954Z" fill="url(#paint5_linear_116_2)"/>
<path opacity="0.6" d="M367.016 245.108L244.898 25H255.978L375.387 240.307C378.017 245.054 379.397 250.391 379.397 255.818C379.397 261.244 378.017 266.582 375.387 271.329L255.978 486.636H244.898L367.016 266.528C370.71 259.88 370.71 251.755 367.016 245.108Z" fill="url(#paint6_linear_116_2)"/>
<path opacity="0.6" d="M250.066 245.108L131.641 31.6476C135.334 29.6779 139.765 28.2007 143.951 26.9696C170.049 73.8718 208.58 145.025 259.668 240.307C262.297 245.054 263.677 250.391 263.677 255.818C263.677 261.244 262.297 266.582 259.668 271.329L142.104 484.174C137.919 482.942 135.703 482.081 131.764 480.234L249.942 266.651C253.636 260.003 253.636 251.878 249.942 245.231L250.066 245.108Z" fill="url(#paint7_linear_116_2)"/>
<defs>
<linearGradient id="paint0_linear_116_2" x1="9598.07" y1="44878" x2="-10063.1" y2="13258.1" gradientUnits="userSpaceOnUse">
<stop stop-color="#EB6F07"/>
<stop offset="1" stop-color="#FAB743"/>
</linearGradient>
<linearGradient id="paint1_linear_116_2" x1="14935.2" y1="20311.9" x2="4811.95" y2="9900.43" gradientUnits="userSpaceOnUse">
<stop stop-color="#D96504"/>
<stop offset="1" stop-color="#D96504" stop-opacity="0"/>
</linearGradient>
<linearGradient id="paint2_linear_116_2" x1="5027.2" y1="1114.42" x2="10386.3" y2="9723.07" gradientUnits="userSpaceOnUse">
<stop stop-color="#EB6F07"/>
<stop offset="1" stop-color="#EB720A" stop-opacity="0"/>
</linearGradient>
<linearGradient id="paint3_linear_116_2" x1="13057.1" y1="46188.6" x2="-4547.85" y2="9504.29" gradientUnits="userSpaceOnUse">
<stop stop-color="#EE6F05"/>
<stop offset="1" stop-color="#FAB743"/>
</linearGradient>
<linearGradient id="paint4_linear_116_2" x1="-4607.59" y1="46200.9" x2="23579.6" y2="39046.7" gradientUnits="userSpaceOnUse">
<stop stop-color="#D96504" stop-opacity="0.8"/>
<stop offset="0.498" stop-color="#D96504" stop-opacity="0.2"/>
<stop offset="1" stop-color="#D96504" stop-opacity="0"/>
</linearGradient>
<linearGradient id="paint5_linear_116_2" x1="12519.3" y1="46188.6" x2="-5445.08" y2="9964.54" gradientUnits="userSpaceOnUse">
<stop stop-color="#FFA95F"/>
<stop offset="1" stop-color="#FFEBC8"/>
</linearGradient>
<linearGradient id="paint6_linear_116_2" x1="1334.34" y1="532.799" x2="16315.5" y2="2888.02" gradientUnits="userSpaceOnUse">
<stop stop-color="white" stop-opacity="0.5"/>
<stop offset="1" stop-color="white" stop-opacity="0.1"/>
</linearGradient>
<linearGradient id="paint7_linear_116_2" x1="-1677.26" y1="47667.6" x2="12314" y2="31725.3" gradientUnits="userSpaceOnUse">
<stop stop-color="white" stop-opacity="0.5"/>
<stop offset="1" stop-color="white" stop-opacity="0.1"/>
</linearGradient>
</defs>
</svg>
