<svg width="512" height="512" viewBox="0 0 512 512" fill="none" xmlns="http://www.w3.org/2000/svg">
<path d="M160 32C177.6 32 194.24 40.3204 204.8 54.4004L233.6 92.7998C234.345 93.7933 235.311 94.5999 236.422 95.1553C237.533 95.7107 238.758 96 240 96H456C470.852 96 485.096 101.9 495.598 112.402C506.1 122.904 512 137.148 512 152V241.937C484.981 224.271 452.69 214 418 214C323.007 214 246 291.007 246 386C246 420.691 256.272 452.981 273.938 480H56C25.088 480 0 454.912 0 424V88C0 73.1479 5.90031 58.9044 16.4023 48.4023C26.9044 37.9003 41.1479 32 56 32H160Z" fill="#9198A1"/>
<path d="M442.797 441.116C470.791 438 497.183 423.054 511.715 398.11C504.833 459.809 437.498 498.806 382.535 474.863C377.471 472.663 373.111 469.002 370.12 464.296C357.768 444.863 353.708 420.136 359.542 397.696C376.21 426.519 410.102 444.187 442.797 441.116Z" fill="#F3B01C"/>
<path d="M358.52 379.592C347.173 405.867 346.681 436.628 360.593 461.943C311.635 425.038 312.169 346.063 359.994 309.527C364.418 306.15 369.675 304.146 375.188 303.841C397.861 302.643 420.898 311.423 437.053 327.784C404.229 328.111 372.261 349.178 358.52 379.592Z" fill="#8D2676"/>
<path d="M452.883 335.868C436.322 312.731 410.401 296.98 382.001 296.501C436.899 271.534 504.426 312.012 511.778 371.859C512.462 377.415 511.564 383.079 509.106 388.09C498.849 408.961 479.83 425.148 457.606 431.139C473.89 400.878 471.88 363.907 452.883 335.868Z" fill="#EE342F"/>
</svg>
