<svg width="512" height="512" viewBox="0 0 512 512" fill="none" xmlns="http://www.w3.org/2000/svg">
<path d="M160 32C177.6 32 194.24 40.3204 204.8 54.4004L233.6 92.7998C234.345 93.7933 235.311 94.5999 236.422 95.1553C237.533 95.7107 238.758 96 240 96H456C470.852 96 485.096 101.9 495.598 112.402C506.1 122.904 512 137.148 512 152V241.937C484.981 224.271 452.69 214 418 214C323.007 214 246 291.007 246 386C246 420.691 256.272 452.981 273.938 480H56C25.088 480 0 454.912 0 424V88C0 73.1479 5.90031 58.9044 16.4023 48.4023C26.9044 37.9003 41.1479 32 56 32H160Z" fill="#9198A1"/>
<path opacity="0.65" d="M388.971 313.986C388.407 321.179 389.534 327.987 393.473 334.138C396.122 338.223 400.164 341.208 404.848 342.538C405.566 342.686 406.308 342.672 407.02 342.498C407.732 342.324 408.396 341.995 408.965 341.532C414.28 336.473 416.843 330.288 415.944 322.668C414.348 309.127 406.296 299.892 396.047 291.088C392.062 298.735 389.597 306.045 388.971 313.986Z" fill="url(#paint0_linear_198_2)"/>
<path opacity="0.65" d="M374.69 321.169C375.633 328.322 378.152 334.747 383.282 339.941C386.722 343.387 391.297 345.467 396.155 345.794C396.888 345.789 397.611 345.622 398.271 345.303C398.931 344.985 399.512 344.524 399.973 343.954C404.12 337.897 405.341 331.317 402.879 324.05C398.503 311.14 388.706 303.779 376.851 297.297C374.542 305.609 373.648 313.271 374.69 321.169Z" fill="url(#paint1_linear_198_2)"/>
<path opacity="0.65" d="M362.213 331.164C364.623 337.968 368.422 343.726 374.52 347.738C378.602 350.394 383.509 351.477 388.33 350.787C389.046 350.629 389.718 350.315 390.297 349.867C390.877 349.418 391.35 348.846 391.681 348.193C394.478 341.406 394.305 334.716 390.385 328.12C383.42 316.399 372.308 311.238 359.364 307.364C358.834 315.975 359.552 323.652 362.213 331.164Z" fill="url(#paint2_linear_198_2)"/>
<path opacity="0.65" d="M352.084 343.534C355.855 349.686 360.768 354.53 367.568 357.189C372.113 358.937 377.138 358.976 381.709 357.299C382.377 356.996 382.969 356.549 383.443 355.99C383.916 355.431 384.26 354.773 384.448 354.065C385.773 346.844 384.213 340.336 379.007 334.698C369.76 324.681 357.815 321.944 344.349 320.844C345.624 329.38 347.924 336.743 352.084 343.534Z" fill="url(#paint3_linear_198_2)"/>
<path opacity="0.65" d="M344.757 357.738C349.725 362.972 355.538 366.689 362.743 367.875C367.552 368.641 372.476 367.635 376.598 365.043C377.188 364.609 377.674 364.048 378.021 363.403C378.368 362.757 378.568 362.043 378.605 361.311C378.4 353.972 375.52 347.931 369.257 343.501C358.126 335.625 345.878 335.43 332.475 337.155C335.492 345.237 339.273 351.962 344.757 357.738Z" fill="url(#paint4_linear_198_2)"/>
<path opacity="0.65" d="M340.538 373.157C346.485 377.243 352.945 379.671 360.238 379.334C365.101 379.083 369.707 377.075 373.201 373.682C373.688 373.135 374.046 372.485 374.252 371.782C374.457 371.078 374.503 370.338 374.387 369.615C372.661 362.48 368.589 357.17 361.54 354.137C349.016 348.748 336.993 351.105 324.244 355.58C328.88 362.856 333.973 368.647 340.538 373.157Z" fill="url(#paint5_linear_198_2)"/>
<path opacity="0.65" d="M339.617 389.117C346.283 391.877 353.106 392.908 360.17 391.062C364.875 389.805 368.963 386.884 371.676 382.84C372.038 382.202 372.254 381.493 372.309 380.762C372.363 380.031 372.254 379.298 371.991 378.614C368.819 371.993 363.731 367.646 356.206 366.145C342.835 363.478 331.564 368.282 320.023 375.305C326.068 381.466 332.257 386.07 339.617 389.117Z" fill="url(#paint6_linear_198_2)"/>
<path opacity="0.65" d="M342.036 404.918C349.131 406.232 356.019 405.823 362.544 402.548C366.885 400.34 370.276 396.632 372.088 392.113C372.31 391.414 372.374 390.675 372.276 389.949C372.177 389.223 371.918 388.528 371.518 387.914C367.038 382.098 361.158 378.903 353.486 378.999C339.852 379.174 329.827 386.214 320 395.487C327.192 400.251 334.201 403.473 342.036 404.918Z" fill="url(#paint7_linear_198_2)"/>
<path opacity="0.65" d="M347.686 419.873C354.899 419.683 361.551 417.85 367.254 413.29C371.04 410.228 373.585 405.896 374.417 401.098C374.489 400.369 374.398 399.633 374.15 398.943C373.903 398.253 373.505 397.627 372.986 397.11C367.395 392.352 360.979 390.449 353.495 392.137C340.198 395.141 331.855 404.115 324.169 415.228C332.195 418.39 339.723 420.082 347.686 419.873Z" fill="url(#paint8_linear_198_2)"/>
<path opacity="0.65" d="M356.322 433.325C363.337 431.638 369.464 428.463 374.093 422.817C377.16 419.036 378.75 414.27 378.568 409.405C378.486 408.676 378.244 407.975 377.858 407.352C377.473 406.729 376.954 406.199 376.339 405.801C369.883 402.311 363.21 401.783 356.241 404.991C343.853 410.693 337.561 421.205 332.354 433.673C340.863 435.098 348.577 435.185 356.322 433.325Z" fill="url(#paint9_linear_198_2)"/>
<path opacity="0.65" d="M367.566 444.687C374.078 441.58 379.41 437.2 382.764 430.715C384.978 426.378 385.542 421.384 384.352 416.663C384.121 415.967 383.738 415.332 383.231 414.802C382.725 414.273 382.107 413.862 381.422 413.601C374.38 411.529 367.745 412.4 361.595 416.988C350.665 425.139 346.695 436.73 344.194 450.009C352.813 449.636 360.377 448.118 367.566 444.687Z" fill="url(#paint10_linear_198_2)"/>
<path opacity="0.65" d="M380.928 453.464C386.651 449.071 390.96 443.677 392.889 436.637C394.153 431.934 393.667 426.933 391.521 422.562C391.15 421.929 390.644 421.387 390.038 420.975C389.433 420.562 388.743 420.289 388.019 420.176C380.699 419.613 374.39 421.845 369.329 427.611C360.333 437.857 358.861 450.021 359.174 463.528C367.527 461.372 374.61 458.314 380.928 453.464Z" fill="url(#paint11_linear_198_2)"/>
<path opacity="0.65" d="M395.82 459.27C400.506 453.783 403.595 447.613 404.021 440.324C404.279 435.462 402.763 430.67 399.755 426.841C399.26 426.299 398.652 425.874 397.973 425.596C397.294 425.319 396.562 425.196 395.829 425.236C388.553 426.207 382.846 429.702 379.094 436.394C372.425 448.287 373.511 460.491 376.629 473.638C384.357 469.792 390.649 465.329 395.82 459.27Z" fill="url(#paint12_linear_198_2)"/>
<path opacity="0.65" d="M411.597 461.854C415.038 455.512 416.778 448.835 415.679 441.615C414.92 436.805 412.44 432.434 408.701 429.315C408.105 428.888 407.422 428.599 406.701 428.469C405.979 428.338 405.238 428.369 404.531 428.56C397.616 431.022 392.759 435.626 390.481 442.954C386.43 455.973 390.03 467.684 395.812 479.896C402.571 474.529 407.798 468.855 411.597 461.854Z" fill="url(#paint13_linear_198_2)"/>
<path opacity="0.65" d="M427.562 461.101C429.611 454.183 429.923 447.289 427.349 440.457C425.607 435.91 422.274 432.149 417.968 429.874C417.297 429.581 416.568 429.44 415.836 429.462C415.104 429.484 414.385 429.669 413.733 430.003C407.481 433.85 403.688 439.364 402.983 447.004C401.727 460.581 407.684 471.288 415.879 482.031C421.369 475.376 425.302 468.739 427.562 461.101Z" fill="url(#paint14_linear_198_2)"/>
<path opacity="0.65" d="M443.026 457.045C443.591 449.852 442.464 443.045 438.525 436.894C435.876 432.807 431.834 429.822 427.149 428.492C426.431 428.344 425.69 428.358 424.978 428.532C424.266 428.706 423.601 429.036 423.033 429.499C417.717 434.558 415.154 440.743 416.054 448.362C417.649 461.904 425.702 471.138 435.951 479.942C439.936 472.296 442.403 464.986 443.026 457.045Z" fill="url(#paint15_linear_198_2)"/>
<path opacity="0.65" d="M457.307 449.863C456.364 442.709 453.845 436.285 448.715 431.091C445.274 427.645 440.7 425.565 435.841 425.238C435.108 425.243 434.386 425.41 433.726 425.728C433.066 426.047 432.484 426.507 432.024 427.078C427.877 433.135 426.655 439.715 429.118 446.981C433.493 459.892 443.29 467.253 455.145 473.735C457.455 465.422 458.349 457.759 457.307 449.863Z" fill="url(#paint16_linear_198_2)"/>
<path opacity="0.65" d="M469.783 439.868C467.373 433.064 463.574 427.306 457.476 423.293C453.394 420.638 448.487 419.555 443.666 420.245C442.951 420.402 442.279 420.716 441.699 421.165C441.12 421.613 440.647 422.185 440.316 422.838C437.518 429.626 437.691 436.316 441.611 442.911C448.576 454.633 459.689 459.794 472.632 463.673C473.162 455.057 472.444 447.376 469.783 439.868Z" fill="url(#paint17_linear_198_2)"/>
<path opacity="0.65" d="M479.909 427.497C476.138 421.346 471.224 416.506 464.423 413.843C459.879 412.094 454.854 412.055 450.283 413.732C449.615 414.035 449.023 414.482 448.55 415.041C448.076 415.601 447.733 416.258 447.544 416.966C446.219 424.187 447.78 430.694 452.985 436.333C462.232 446.35 474.177 449.088 487.644 450.186C486.372 441.652 484.072 434.289 479.909 427.497Z" fill="url(#paint18_linear_198_2)"/>
<path opacity="0.65" d="M487.239 413.293C482.272 408.058 476.459 404.342 469.255 403.156C464.445 402.39 459.522 403.397 455.399 405.988C454.809 406.423 454.323 406.983 453.976 407.629C453.629 408.274 453.43 408.988 453.393 409.72C453.598 417.059 456.477 423.1 462.741 427.53C473.871 435.406 486.12 435.601 499.523 433.876C496.505 425.794 492.724 419.069 487.239 413.293Z" fill="url(#paint19_linear_198_2)"/>
<path opacity="0.65" d="M491.458 397.874C485.511 393.788 479.051 391.36 471.759 391.697C466.896 391.949 462.289 393.957 458.795 397.349C458.308 397.896 457.949 398.545 457.744 399.249C457.539 399.952 457.492 400.693 457.608 401.416C459.334 408.551 463.407 413.862 470.455 416.894C482.98 422.283 495.003 419.927 507.753 415.453C503.12 408.175 498.023 402.384 491.458 397.874Z" fill="url(#paint20_linear_198_2)"/>
<path opacity="0.65" d="M492.38 381.915C485.713 379.155 478.891 378.123 471.826 379.97C467.122 381.226 463.033 384.148 460.322 388.192C459.959 388.829 459.743 389.539 459.688 390.27C459.634 391.001 459.743 391.734 460.007 392.418C463.179 399.038 468.266 403.386 475.79 404.886C489.162 407.554 500.433 402.749 511.973 395.726C505.929 389.566 499.74 384.961 492.38 381.915Z" fill="url(#paint21_linear_198_2)"/>
<path opacity="0.65" d="M489.962 366.113C482.868 364.799 475.979 365.208 469.453 368.483C465.113 370.691 461.721 374.399 459.909 378.918C459.687 379.617 459.623 380.356 459.722 381.082C459.82 381.808 460.079 382.504 460.479 383.118C464.959 388.933 470.839 392.128 478.511 392.032C492.145 391.857 502.17 384.817 511.998 375.544C504.806 370.78 497.794 367.563 489.962 366.113Z" fill="url(#paint22_linear_198_2)"/>
<path opacity="0.65" d="M484.31 351.159C477.097 351.349 470.445 353.182 464.743 357.742C460.956 360.803 458.409 365.135 457.577 369.933C457.505 370.662 457.596 371.398 457.843 372.088C458.091 372.778 458.488 373.404 459.007 373.921C464.598 378.679 471.014 380.582 478.498 378.894C491.798 375.892 500.141 366.918 507.826 355.805C499.8 352.639 492.272 350.949 484.31 351.159Z" fill="url(#paint23_linear_198_2)"/>
<path opacity="0.65" d="M475.674 337.707C468.659 339.393 462.532 342.569 457.903 348.215C454.835 351.997 453.245 356.764 453.428 361.63C453.51 362.358 453.752 363.059 454.137 363.682C454.523 364.306 455.042 364.835 455.657 365.234C462.113 368.723 468.786 369.252 475.755 366.043C488.143 360.341 494.435 349.829 499.641 337.362C491.138 335.933 483.419 335.846 475.674 337.707Z" fill="url(#paint24_linear_198_2)"/>
<path opacity="0.65" d="M464.431 326.344C457.919 329.451 452.587 333.831 449.232 340.316C447.018 344.653 446.454 349.647 447.644 354.368C447.875 355.064 448.258 355.699 448.764 356.229C449.271 356.758 449.889 357.169 450.573 357.43C457.616 359.503 464.251 358.631 470.401 354.043C481.33 345.891 485.301 334.3 487.802 321.022C479.187 321.395 471.619 322.914 464.431 326.344Z" fill="url(#paint25_linear_198_2)"/>
<path opacity="0.65" d="M451.069 317.568C445.346 321.961 441.037 327.354 439.107 334.395C437.844 339.098 438.33 344.099 440.476 348.47C440.847 349.103 441.353 349.645 441.959 350.057C442.565 350.47 443.255 350.743 443.979 350.856C451.298 351.419 457.607 349.187 462.668 343.421C471.664 333.175 473.136 321.012 472.823 307.504C464.47 309.659 457.388 312.717 451.069 317.568Z" fill="url(#paint26_linear_198_2)"/>
<path opacity="0.65" d="M436.18 311.761C431.494 317.248 428.405 323.418 427.98 330.707C427.721 335.569 429.237 340.36 432.245 344.19C432.739 344.732 433.348 345.157 434.027 345.434C434.706 345.712 435.438 345.835 436.17 345.795C443.446 344.824 449.153 341.328 452.906 334.637C459.575 322.744 458.489 310.54 455.372 297.393C447.64 301.239 441.348 305.702 436.18 311.761Z" fill="url(#paint27_linear_198_2)"/>
<path opacity="0.65" d="M420.4 309.177C416.959 315.519 415.219 322.196 416.318 329.415C417.077 334.226 419.557 338.597 423.297 341.716C423.892 342.142 424.575 342.431 425.296 342.562C426.017 342.692 426.758 342.661 427.466 342.47C434.382 340.008 439.237 335.404 441.516 328.076C445.566 315.057 441.966 303.346 436.184 291.134C429.427 296.502 424.2 302.176 420.4 309.177Z" fill="url(#paint28_linear_198_2)"/>
<path opacity="0.65" d="M404.432 309.93C402.384 316.848 402.072 323.742 404.646 330.574C406.388 335.121 409.721 338.882 414.027 341.157C414.698 341.45 415.426 341.591 416.159 341.569C416.891 341.547 417.61 341.362 418.262 341.028C424.514 337.181 428.307 331.667 429.012 324.027C430.267 310.45 424.311 299.743 416.117 289C410.626 295.655 406.694 302.292 404.432 309.93Z" fill="url(#paint29_linear_198_2)"/>
<defs>
<linearGradient id="paint0_linear_198_2" x1="319.808" y1="482.334" x2="513.472" y2="288.67" gradientUnits="userSpaceOnUse">
<stop stop-color="#0A00B2"/>
<stop offset="0.5" stop-color="#FF0000"/>
<stop offset="1" stop-color="#FFFC00"/>
</linearGradient>
<linearGradient id="paint1_linear_198_2" x1="319.807" y1="482.334" x2="513.471" y2="288.67" gradientUnits="userSpaceOnUse">
<stop stop-color="#0A00B2"/>
<stop offset="0.5" stop-color="#FF0000"/>
<stop offset="1" stop-color="#FFFC00"/>
</linearGradient>
<linearGradient id="paint2_linear_198_2" x1="319.807" y1="482.334" x2="513.47" y2="288.67" gradientUnits="userSpaceOnUse">
<stop stop-color="#0A00B2"/>
<stop offset="0.5" stop-color="#FF0000"/>
<stop offset="1" stop-color="#FFFC00"/>
</linearGradient>
<linearGradient id="paint3_linear_198_2" x1="319.807" y1="482.334" x2="513.47" y2="288.67" gradientUnits="userSpaceOnUse">
<stop stop-color="#0A00B2"/>
<stop offset="0.5" stop-color="#FF0000"/>
<stop offset="1" stop-color="#FFFC00"/>
</linearGradient>
<linearGradient id="paint4_linear_198_2" x1="319.808" y1="482.334" x2="513.471" y2="288.67" gradientUnits="userSpaceOnUse">
<stop stop-color="#0A00B2"/>
<stop offset="0.5" stop-color="#FF0000"/>
<stop offset="1" stop-color="#FFFC00"/>
</linearGradient>
<linearGradient id="paint5_linear_198_2" x1="319.807" y1="482.334" x2="513.471" y2="288.67" gradientUnits="userSpaceOnUse">
<stop stop-color="#0A00B2"/>
<stop offset="0.5" stop-color="#FF0000"/>
<stop offset="1" stop-color="#FFFC00"/>
</linearGradient>
<linearGradient id="paint6_linear_198_2" x1="319.806" y1="482.334" x2="513.47" y2="288.67" gradientUnits="userSpaceOnUse">
<stop stop-color="#0A00B2"/>
<stop offset="0.5" stop-color="#FF0000"/>
<stop offset="1" stop-color="#FFFC00"/>
</linearGradient>
<linearGradient id="paint7_linear_198_2" x1="319.807" y1="482.334" x2="513.471" y2="288.67" gradientUnits="userSpaceOnUse">
<stop stop-color="#0A00B2"/>
<stop offset="0.5" stop-color="#FF0000"/>
<stop offset="1" stop-color="#FFFC00"/>
</linearGradient>
<linearGradient id="paint8_linear_198_2" x1="319.807" y1="482.334" x2="513.471" y2="288.67" gradientUnits="userSpaceOnUse">
<stop stop-color="#0A00B2"/>
<stop offset="0.5" stop-color="#FF0000"/>
<stop offset="1" stop-color="#FFFC00"/>
</linearGradient>
<linearGradient id="paint9_linear_198_2" x1="319.807" y1="482.334" x2="513.471" y2="288.67" gradientUnits="userSpaceOnUse">
<stop stop-color="#0A00B2"/>
<stop offset="0.5" stop-color="#FF0000"/>
<stop offset="1" stop-color="#FFFC00"/>
</linearGradient>
<linearGradient id="paint10_linear_198_2" x1="319.807" y1="482.334" x2="513.47" y2="288.67" gradientUnits="userSpaceOnUse">
<stop stop-color="#0A00B2"/>
<stop offset="0.5" stop-color="#FF0000"/>
<stop offset="1" stop-color="#FFFC00"/>
</linearGradient>
<linearGradient id="paint11_linear_198_2" x1="319.809" y1="482.334" x2="513.472" y2="288.67" gradientUnits="userSpaceOnUse">
<stop stop-color="#0A00B2"/>
<stop offset="0.5" stop-color="#FF0000"/>
<stop offset="1" stop-color="#FFFC00"/>
</linearGradient>
<linearGradient id="paint12_linear_198_2" x1="319.807" y1="482.334" x2="513.471" y2="288.67" gradientUnits="userSpaceOnUse">
<stop stop-color="#0A00B2"/>
<stop offset="0.5" stop-color="#FF0000"/>
<stop offset="1" stop-color="#FFFC00"/>
</linearGradient>
<linearGradient id="paint13_linear_198_2" x1="319.808" y1="482.334" x2="513.472" y2="288.67" gradientUnits="userSpaceOnUse">
<stop stop-color="#0A00B2"/>
<stop offset="0.5" stop-color="#FF0000"/>
<stop offset="1" stop-color="#FFFC00"/>
</linearGradient>
<linearGradient id="paint14_linear_198_2" x1="319.806" y1="482.334" x2="513.469" y2="288.67" gradientUnits="userSpaceOnUse">
<stop stop-color="#0A00B2"/>
<stop offset="0.5" stop-color="#FF0000"/>
<stop offset="1" stop-color="#FFFC00"/>
</linearGradient>
<linearGradient id="paint15_linear_198_2" x1="319.807" y1="482.334" x2="513.471" y2="288.67" gradientUnits="userSpaceOnUse">
<stop stop-color="#0A00B2"/>
<stop offset="0.5" stop-color="#FF0000"/>
<stop offset="1" stop-color="#FFFC00"/>
</linearGradient>
<linearGradient id="paint16_linear_198_2" x1="319.807" y1="482.334" x2="513.47" y2="288.67" gradientUnits="userSpaceOnUse">
<stop stop-color="#0A00B2"/>
<stop offset="0.5" stop-color="#FF0000"/>
<stop offset="1" stop-color="#FFFC00"/>
</linearGradient>
<linearGradient id="paint17_linear_198_2" x1="319.807" y1="482.334" x2="513.471" y2="288.67" gradientUnits="userSpaceOnUse">
<stop stop-color="#0A00B2"/>
<stop offset="0.5" stop-color="#FF0000"/>
<stop offset="1" stop-color="#FFFC00"/>
</linearGradient>
<linearGradient id="paint18_linear_198_2" x1="319.807" y1="482.334" x2="513.471" y2="288.67" gradientUnits="userSpaceOnUse">
<stop stop-color="#0A00B2"/>
<stop offset="0.5" stop-color="#FF0000"/>
<stop offset="1" stop-color="#FFFC00"/>
</linearGradient>
<linearGradient id="paint19_linear_198_2" x1="319.807" y1="482.334" x2="513.47" y2="288.67" gradientUnits="userSpaceOnUse">
<stop stop-color="#0A00B2"/>
<stop offset="0.5" stop-color="#FF0000"/>
<stop offset="1" stop-color="#FFFC00"/>
</linearGradient>
<linearGradient id="paint20_linear_198_2" x1="319.807" y1="482.334" x2="513.47" y2="288.67" gradientUnits="userSpaceOnUse">
<stop stop-color="#0A00B2"/>
<stop offset="0.5" stop-color="#FF0000"/>
<stop offset="1" stop-color="#FFFC00"/>
</linearGradient>
<linearGradient id="paint21_linear_198_2" x1="319.808" y1="482.334" x2="513.472" y2="288.67" gradientUnits="userSpaceOnUse">
<stop stop-color="#0A00B2"/>
<stop offset="0.5" stop-color="#FF0000"/>
<stop offset="1" stop-color="#FFFC00"/>
</linearGradient>
<linearGradient id="paint22_linear_198_2" x1="319.808" y1="482.334" x2="513.472" y2="288.67" gradientUnits="userSpaceOnUse">
<stop stop-color="#0A00B2"/>
<stop offset="0.5" stop-color="#FF0000"/>
<stop offset="1" stop-color="#FFFC00"/>
</linearGradient>
<linearGradient id="paint23_linear_198_2" x1="319.807" y1="482.334" x2="513.47" y2="288.67" gradientUnits="userSpaceOnUse">
<stop stop-color="#0A00B2"/>
<stop offset="0.5" stop-color="#FF0000"/>
<stop offset="1" stop-color="#FFFC00"/>
</linearGradient>
<linearGradient id="paint24_linear_198_2" x1="319.807" y1="482.334" x2="513.47" y2="288.67" gradientUnits="userSpaceOnUse">
<stop stop-color="#0A00B2"/>
<stop offset="0.5" stop-color="#FF0000"/>
<stop offset="1" stop-color="#FFFC00"/>
</linearGradient>
<linearGradient id="paint25_linear_198_2" x1="319.807" y1="482.334" x2="513.471" y2="288.67" gradientUnits="userSpaceOnUse">
<stop stop-color="#0A00B2"/>
<stop offset="0.5" stop-color="#FF0000"/>
<stop offset="1" stop-color="#FFFC00"/>
</linearGradient>
<linearGradient id="paint26_linear_198_2" x1="319.806" y1="482.334" x2="513.47" y2="288.67" gradientUnits="userSpaceOnUse">
<stop stop-color="#0A00B2"/>
<stop offset="0.5" stop-color="#FF0000"/>
<stop offset="1" stop-color="#FFFC00"/>
</linearGradient>
<linearGradient id="paint27_linear_198_2" x1="319.807" y1="482.334" x2="513.471" y2="288.67" gradientUnits="userSpaceOnUse">
<stop stop-color="#0A00B2"/>
<stop offset="0.5" stop-color="#FF0000"/>
<stop offset="1" stop-color="#FFFC00"/>
</linearGradient>
<linearGradient id="paint28_linear_198_2" x1="319.807" y1="482.334" x2="513.471" y2="288.67" gradientUnits="userSpaceOnUse">
<stop stop-color="#0A00B2"/>
<stop offset="0.5" stop-color="#FF0000"/>
<stop offset="1" stop-color="#FFFC00"/>
</linearGradient>
<linearGradient id="paint29_linear_198_2" x1="319.807" y1="482.334" x2="513.47" y2="288.67" gradientUnits="userSpaceOnUse">
<stop stop-color="#0A00B2"/>
<stop offset="0.5" stop-color="#FF0000"/>
<stop offset="1" stop-color="#FFFC00"/>
</linearGradient>
</defs>
</svg>
