<svg width="512" height="512" viewBox="0 0 512 512" fill="none" xmlns="http://www.w3.org/2000/svg">
<path d="M160 32C177.6 32 194.24 40.3204 204.8 54.4004L233.6 92.7998C234.345 93.7933 235.311 94.5999 236.422 95.1553C237.533 95.7107 238.758 96 240 96H456C470.852 96 485.096 101.9 495.598 112.402C506.1 122.904 512 137.148 512 152V241.937C484.981 224.271 452.69 214 418 214C323.007 214 246 291.007 246 386C246 420.691 256.272 452.981 273.938 480H56C25.088 480 0 454.912 0 424V88C0 73.1479 5.90031 58.9044 16.4023 48.4023C26.9044 37.9003 41.1479 32 56 32H160Z" fill="#9198A1"/>
<path d="M418 480C391.889 480 369.694 470.861 351.417 452.583C333.139 434.306 324 412.111 324 386C324 359.889 333.139 337.694 351.417 319.417C369.694 301.139 391.889 292 418 292C420.437 292 422.831 292.087 425.181 292.261C427.531 292.435 429.837 292.696 432.1 293.044C424.963 298.093 419.262 304.664 414.997 312.758C410.732 320.853 408.6 329.6 408.6 339C408.6 354.667 414.083 367.983 425.05 378.95C436.017 389.917 449.333 395.4 465 395.4C474.574 395.4 483.365 393.268 491.372 389.003C499.38 384.738 505.907 379.037 510.956 371.9C511.304 374.163 511.565 376.469 511.739 378.819C511.913 381.169 512 383.563 512 386C512 412.111 502.861 434.306 484.583 452.583C466.306 470.861 444.111 480 418 480Z" fill="#8800FF"/>
</svg>
